<?xml version="1.0" encoding="utf-8"?>
<!-- Generator: Adobe Illustrator 23.0.4, SVG Export Plug-In . SVG Version: 6.00 Build 0)  -->
<svg version="1.1" id="Layer_1" xmlns="http://www.w3.org/2000/svg" xmlns:xlink="http://www.w3.org/1999/xlink" x="0px" y="0px"
	 viewBox="0 0 320 320" style="enable-background:new 0 0 320 320;" xml:space="preserve">
<style type="text/css">
	.st0{opacity:0.8;fill:#FFFFFF;enable-background:new    ;}
	.st1{opacity:0.6;fill:#F9F9F9;enable-background:new    ;}
	.st2{fill:#FFFFFF;enable-background:new    ;}
	.st3{opacity:0.4;fill:#FFFFFF;enable-background:new    ;}
</style>
<title>Ben-Portfolio</title>
<g id="ar_chart_icon">
	<path class="st0" d="M100.9,86.1L100.9,86.1c10.1,0,18.4,8.2,18.4,18.3v117.9c0,10.1-8.2,18.3-18.3,18.3h0
		c-10.1,0-18.3-8.2-18.3-18.3V104.4C82.6,94.3,90.8,86.1,100.9,86.1z"/>
	<path class="st1" d="M140,117.2L140,117.2c10.1,0,18.4,8.2,18.4,18.3v86.8c0,10.1-8.2,18.3-18.3,18.3h0c-10.1,0-18.3-8.2-18.3-18.3
		v-86.8C121.7,125.4,129.9,117.2,140,117.2z"/>
	<path class="st2" d="M179,41.8L179,41.8c10.1,0,18.4,8.2,18.4,18.3v162.3c0,10.1-8.2,18.3-18.3,18.3h0c-10.1,0-18.3-8.2-18.3-18.3
		V60.1C160.7,50,168.9,41.8,179,41.8z"/>
	<path class="st3" d="M218.9,163.4L218.9,163.4c10.1,0,18.4,8.2,18.4,18.3v40.6c0,10.1-8.2,18.3-18.3,18.3h0
		c-10.1,0-18.3-8.2-18.3-18.3v-40.6C200.6,171.6,208.8,163.4,218.9,163.4z"/>
</g>
</svg>
