<svg id="Layer_1" data-name="Layer 1" xmlns="http://www.w3.org/2000/svg" viewBox="0 0 320 320"><defs><style>.cls-1{fill:none;stroke:#666;stroke-miterlimit:10;stroke-width:5.06px;}</style></defs><title>Ben-Portfolio</title><g id="Github_Icon" data-name="Github Icon"><path d="M185,214c5.75-1.76,10.93-3.49,16.2-4.94,18.71-5.16,30-18,32.52-37.26.9-6.78,2.53-13.53,1.49-20.43-1.08-7.17-3.05-14.07-7.51-20a13.44,13.44,0,0,1-2.47-12.77c1.41-5,1-10.38-.47-15.51-2.06-7.48-2.92-8-10.14-5.83C209,99,203.41,101,198.56,104.41c-4.09,2.89-8.45,3.16-13.1,2.34a117.78,117.78,0,0,0-42.82,0c-6.24,1.19-11.67-.44-16.73-3.76a46.07,46.07,0,0,0-15.35-6.15c-3.57-.82-5.61.15-6.9,3.44-2.29,5.85-4.38,11.85-2.29,18.09,1.87,5.59.5,10.12-2.7,14.69-9.56,13.61-7.33,28.85-4.38,43.46,4,19.88,18.41,29.79,37.27,34.36,11.54,2.79,11.25,2.92,6.45,13.26-2.38,5.14-6,7.46-11.21,8.12-9.17,1.19-16.83-1.7-22.32-9.22A54.25,54.25,0,0,0,95.27,213c-3.3-2.71-7-4.74-11.39-3.07-.82,3.3,1.44,4.57,3,6.07a47.46,47.46,0,0,1,10,14.35c6,12.46,16.39,18,30.15,16.51,6.62-.72,8.28.54,8.76,7a74.14,74.14,0,0,1,0,8.82c-.37,8.13-4.38,11.18-12.24,8.48a85.48,85.48,0,0,1-15.9-7.57c-24-14.35-42.11-33.93-51.43-60.65-7.43-21.3-9.52-42.82-4.14-65.32,9.17-38.41,31.83-65.49,67.31-81.12,31.21-13.74,63.37-12.54,93.9,2.54,36.43,18,58.16,48,63.64,88.24,5.87,43.21-9.54,78.54-43,106.34a108.41,108.41,0,0,1-28.61,16.65c-9.1,3.73-13.73.77-14.58-9-.28-3.24-.64-6.66,0-9.78C193.62,238.48,190.89,226.36,185,214Z"/><circle class="cls-1" cx="160" cy="160" r="151.25"/></g></svg>