<?xml version="1.0" encoding="utf-8"?>
<!-- Generator: Adobe Illustrator 23.0.4, SVG Export Plug-In . SVG Version: 6.00 Build 0)  -->
<svg version="1.1" id="Layer_1" xmlns="http://www.w3.org/2000/svg" xmlns:xlink="http://www.w3.org/1999/xlink" x="0px" y="0px"
	 viewBox="0 0 320 320" style="enable-background:new 0 0 320 320;" xml:space="preserve">
<style type="text/css">
	.st0{fill:none;stroke:#FFFFFF;stroke-width:6;stroke-miterlimit:10;}
	.st1{fill:#FFFFFF;stroke:#FFFFFF;stroke-width:2.55;stroke-miterlimit:10;}
	.st2{fill:none;stroke:#FFFFFF;stroke-width:0.63;stroke-miterlimit:10;}
	.st3{fill:none;stroke:#FFFFFF;stroke-width:0.23;stroke-miterlimit:10;}
</style>
<title>Ben-Portfolio</title>
<g id="comp_icon">
	<path class="st0" d="M98.9,78.8h120.7c4.8,0,8.6,3.9,8.6,8.6v65.3c0,4.8-3.9,8.6-8.6,8.6H98.9c-4.8,0-8.6-3.9-8.6-8.6V87.4
		C90.2,82.7,94.1,78.8,98.9,78.8z"/>
	<path class="st1" d="M238,242.8H80.2c-3.5,0-6.3-2.8-6.3-6.3c0-0.5,0.1-0.9,0.2-1.4l14-60.8c0.7-2.8,3.2-4.9,6.1-4.9H224
		c2.9,0,5.5,2,6.1,4.9l14,60.8c0.8,3.4-1.3,6.7-4.7,7.5C238.9,242.7,238.5,242.8,238,242.8z"/>
	<path class="st2" d="M176.5,234.1h-37.4c-1.3,0-2.3-1-2.3-2.3c0-0.1,0-0.3,0-0.4l2.6-13.5c0.2-1.1,1.2-1.9,2.3-1.9h32.2
		c1.1,0,2.1,0.8,2.3,1.9l2.6,13.5c0.2,1.3-0.6,2.5-1.8,2.7C176.8,234.1,176.7,234.1,176.5,234.1z"/>
	<path class="st3" d="M170.7,241.5h-25.3c-1,0-1.7-0.3-1.5-0.6l1.8-2.7c0.5-0.3,1-0.4,1.5-0.4H169c0.5-0.1,1.1,0.1,1.5,0.4l1.8,2.7
		C172.4,241.2,171.7,241.5,170.7,241.5z"/>
</g>
</svg>
