<svg id="Layer_1" data-name="Layer 1" xmlns="http://www.w3.org/2000/svg" viewBox="0 0 320 320"><defs><style>.cls-1,.cls-2{fill:none;}.cls-1{stroke:#666;stroke-width:5.06px;}.cls-1,.cls-2,.cls-3,.cls-4,.cls-5{stroke-miterlimit:10;}.cls-2,.cls-3,.cls-4,.cls-5{stroke:#000;}.cls-2{stroke-width:6px;}.cls-3{stroke-width:2.55px;}.cls-4,.cls-5{fill:#fff;}.cls-4{stroke-width:0.63px;}.cls-5{stroke-width:0.23px;}</style></defs><title>Ben-Portfolio</title><g id="comp_icon" data-name="comp icon"><circle class="cls-1" cx="160" cy="160" r="151.25"/><rect class="cls-2" x="90.25" y="78.8" width="137.98" height="82.54" rx="8.62" ry="8.62"/><path class="cls-3" d="M238,242.75H80.24a6.27,6.27,0,0,1-6.11-7.68l14-60.81a6.27,6.27,0,0,1,6.11-4.86H224a6.27,6.27,0,0,1,6.11,4.86l14,60.81A6.27,6.27,0,0,1,238,242.75Z"/><path class="cls-4" d="M176.52,234.14H139.13a2.32,2.32,0,0,1-2.28-2.75l2.59-13.54a2.32,2.32,0,0,1,2.28-1.88h32.21a2.32,2.32,0,0,1,2.28,1.88l2.59,13.54A2.32,2.32,0,0,1,176.52,234.14Z"/><path class="cls-5" d="M170.71,241.48H145.4c-1,0-1.73-.27-1.54-.56l1.75-2.73a2.26,2.26,0,0,1,1.54-.38H169a2.26,2.26,0,0,1,1.54.38l1.75,2.73C172.44,241.21,171.7,241.48,170.71,241.48Z"/></g></svg>