<?xml version="1.0" encoding="utf-8"?>
<!-- Generator: Adobe Illustrator 23.0.4, SVG Export Plug-In . SVG Version: 6.00 Build 0)  -->
<svg version="1.1" id="Layer_1" xmlns="http://www.w3.org/2000/svg" xmlns:xlink="http://www.w3.org/1999/xlink" x="0px" y="0px"
	 viewBox="0 0 320 320" style="enable-background:new 0 0 320 320;" xml:space="preserve">
<style type="text/css">
	.st0{fill:none;stroke:#FFFFFF;stroke-width:6;stroke-miterlimit:10;}
</style>
<title>Ben-Portfolio</title>
<g id="line_chart_icon">
	<polyline class="st0" points="70.8,60.8 70.8,244.2 248.2,244.2 	"/>
	<path class="st0" d="M70.8,244.2c1.1-1.1,3-3.1,5-5.7c9.9-12.8,9-21.6,16.2-28.7c5.1-5,11.2-6.1,17.7-7.3
		c20.4-3.7,27.4,8.6,46.4,5.2c10.5-1.9,17.9-7.3,23.5-11.5c11.7-8.6,18.3-19,21.4-24c6.9-11.2,6-14.7,13.6-24
		c6-7.3,11.9-11.5,14.1-13c8.7-6,17.1-8.6,22.4-9.9"/>
</g>
</svg>
