<svg id="Layer_1" data-name="Layer 1" xmlns="http://www.w3.org/2000/svg" viewBox="0 0 320 320"><defs><style>.cls-1,.cls-2,.cls-4{fill:none;}.cls-1{stroke:#666;stroke-width:5px;}.cls-1,.cls-2,.cls-3,.cls-4{stroke-miterlimit:10;}.cls-2,.cls-3,.cls-4{stroke:#000;stroke-width:4px;}.cls-2,.cls-3{stroke-linecap:round;}</style></defs><title>Ben-Portfolio</title><g id="pencil_Icon" data-name="pencil Icon"><circle class="cls-1" cx="160" cy="160" r="148.25"/><g id="pencil"><polyline class="cls-2" points="223.17 84.3 188.47 64.77 188.42 64.75 112.58 205.62 107.53 261.18 148.16 223.91 223.28 84.37 223.17 84.3"/><polyline class="cls-2" points="113 205.76 115.89 215.37 125.46 212.5 128.17 221.53 139.04 218.27 142.15 228.64"/><polygon class="cls-3" points="108.06 259.92 108.34 253.38 108.61 246.84 112.42 250.28 116.22 253.71 112.14 256.82 108.06 259.92"/><line class="cls-2" x1="139.22" y1="218.24" x2="213.97" y2="79.36"/><line class="cls-2" x1="125.54" y1="212.59" x2="201.19" y2="72.05"/><rect class="cls-2" x="189.07" y="58.39" width="41.69" height="16.79" transform="translate(56.73 -91.52) rotate(28.29)"/><line class="cls-4" x1="189.39" y1="60.72" x2="226.17" y2="80.52"/></g></g></svg>