<?xml version="1.0" encoding="utf-8"?>
<!-- Generator: Adobe Illustrator 23.0.4, SVG Export Plug-In . SVG Version: 6.00 Build 0)  -->
<svg version="1.1" id="Layer_1" xmlns="http://www.w3.org/2000/svg" xmlns:xlink="http://www.w3.org/1999/xlink" x="0px" y="0px"
	 viewBox="0 0 320 320" style="enable-background:new 0 0 320 320;" xml:space="preserve">
<style type="text/css">
	.st0{fill:none;stroke:#FFFFFF;stroke-width:4;stroke-linecap:round;stroke-miterlimit:10;}
	.st1{stroke:#FFFFFF;stroke-width:4;stroke-linecap:round;stroke-miterlimit:10;}
	.st2{fill:none;stroke:#FFFFFF;stroke-width:4;stroke-miterlimit:10;}
</style>
<title>Ben-Portfolio</title>
<g id="pencil_Icon">
	<g id="pencil">
		<polyline class="st0" points="223.2,84.3 188.5,64.8 188.4,64.8 112.6,205.6 107.5,261.2 148.2,223.9 223.3,84.4 223.2,84.3 		"/>
		<polyline class="st0" points="113,205.8 115.9,215.4 125.5,212.5 128.2,221.5 139,218.3 142.1,228.6 		"/>
		<polygon class="st1" points="108.1,259.9 108.3,253.4 108.6,246.8 112.4,250.3 116.2,253.7 112.1,256.8 		"/>
		<line class="st0" x1="139.2" y1="218.2" x2="214" y2="79.4"/>
		<line class="st0" x1="125.5" y1="212.6" x2="201.2" y2="72.1"/>
		
			<rect x="201.5" y="45.9" transform="matrix(0.4739 -0.8806 0.8806 0.4739 51.6335 219.9757)" class="st0" width="16.8" height="41.7"/>
		<line class="st2" x1="189.4" y1="60.7" x2="226.2" y2="80.5"/>
	</g>
</g>
</svg>
