<svg id="Layer_1" data-name="Layer 1" xmlns="http://www.w3.org/2000/svg" viewBox="0 0 320 320"><defs><style>.cls-1{fill:none;stroke:#666;stroke-miterlimit:10;stroke-width:5.06px;}</style></defs><title>Ben-Portfolio</title><g id="Twitter_Icon" data-name="Twitter Icon"><path d="M128.33,203c-.58-.06-1-.13-1.44-.15a32.61,32.61,0,0,1-4.23-.5,36.11,36.11,0,0,1-5.12-1.29,34.68,34.68,0,0,1-3.45-1.31,38.47,38.47,0,0,1-6.31-3.53,39.85,39.85,0,0,1-3.59-2.8c-.78-.69-1.53-1.41-2.25-2.15a37.35,37.35,0,0,1-3.73-4.51A38.54,38.54,0,0,1,95.33,182a42.74,42.74,0,0,1-2-4.87,2.85,2.85,0,0,1-.08-.28c-.08-.32,0-.45.37-.41s.76.12,1.14.18c.71.11,1.43.18,2.15.26a45.23,45.23,0,0,0,5.42.12,26,26,0,0,0,2.59-.23c.77-.08,1.53-.19,2.29-.34l2.79-.59-2.9-.78a33.79,33.79,0,0,1-4.55-1.66,36.36,36.36,0,0,1-6.36-3.57,38.11,38.11,0,0,1-3.63-2.87c-.68-.61-1.36-1.23-2-1.89a39.82,39.82,0,0,1-3.7-4.44,38.7,38.7,0,0,1-3.57-6.12,38.09,38.09,0,0,1-2.45-7,40.77,40.77,0,0,1-.83-4.62,29,29,0,0,1-.2-4.26,2.4,2.4,0,0,1,0-.29.2.2,0,0,1,.32-.17c.24.11.48.23.71.35a37.91,37.91,0,0,0,8.73,3.23,32.48,32.48,0,0,0,3.91.7c.89.1,1.77.2,2.66.26h.43c0-.21-.18-.25-.29-.33a38.33,38.33,0,0,1-5.55-4.74,39.78,39.78,0,0,1-5.19-6.76,37.52,37.52,0,0,1-3.82-8.57A38.48,38.48,0,0,1,80.11,109c0-1.08.19-2.16.32-3.23a32.84,32.84,0,0,1,.63-3.34,39.42,39.42,0,0,1,1.27-4.3c.43-1.21.95-2.38,1.49-3.53.36-.76.78-1.5,1.18-2.24a1.16,1.16,0,0,1,.12-.18.23.23,0,0,1,.37,0l.79.94,2.46,2.85c1,1.13,2.08,2.15,3.08,3.27,1.26,1.4,2.67,2.65,4,3.94,1.54,1.46,3.16,2.83,4.8,4.18a107.47,107.47,0,0,0,9.44,6.94q3.63,2.38,7.45,4.45,2.61,1.41,5.29,2.69,4,1.91,8.12,3.46c1.67.63,3.35,1.23,5.05,1.77a107.82,107.82,0,0,0,11,2.89c1.68.34,3.36.67,5,.94,1.21.2,2.43.34,3.65.49s2.25.28,3.37.39c.84.08,1.68.13,2.52.18a7.74,7.74,0,0,1,1.08.11,1.87,1.87,0,0,0,.36,0c.4,0,.48-.09.42-.47-.14-.81-.29-1.61-.43-2.42s-.19-1.53-.28-2.29a42.92,42.92,0,0,1-.12-4.77,28.36,28.36,0,0,1,.26-3.24,35,35,0,0,1,1-5.32,37.3,37.3,0,0,1,2.32-6.31,37.71,37.71,0,0,1,4.57-7.36,37.06,37.06,0,0,1,4.68-4.93,39.79,39.79,0,0,1,4.73-3.58,38.71,38.71,0,0,1,7.17-3.58,38,38,0,0,1,6.83-1.85c.95-.17,1.91-.27,2.86-.38a46.68,46.68,0,0,1,4.77-.13,31.76,31.76,0,0,1,5.46.53,36.51,36.51,0,0,1,5.19,1.28,37.36,37.36,0,0,1,6.94,3.05,37.79,37.79,0,0,1,4.81,3.21,35.88,35.88,0,0,1,3.51,3.12,2.91,2.91,0,0,1,.25.26,1.06,1.06,0,0,0,1.21.36,75.86,75.86,0,0,0,9.89-2.76c2.25-.8,4.46-1.71,6.63-2.71s4.37-2.16,6.47-3.39l.19-.09a.15.15,0,0,1,.19,0,.18.18,0,0,1,0,.13,2.63,2.63,0,0,1-.09.35,38.35,38.35,0,0,1-6.1,11.28,35.83,35.83,0,0,1-3.83,4.23,39.2,39.2,0,0,1-5.4,4.25c-.2.13-.38.27-.61.44a1.61,1.61,0,0,0,.78,0,79.41,79.41,0,0,0,9.62-2,69.73,69.73,0,0,0,7.41-2.45c.9-.36,1.78-.73,2.68-1.1a2.71,2.71,0,0,1,.48-.15.1.1,0,0,1,.1.14,1.81,1.81,0,0,1-.17.32c-1.13,1.69-2.34,3.3-3.6,4.9a81.18,81.18,0,0,1-8,8.61c-1.37,1.29-2.81,2.5-4.29,3.66-.78.61-1.56,1.22-2.36,1.8a.73.73,0,0,0-.36.73,59.38,59.38,0,0,1,.1,6.73c0,1.54-.11,3.08-.22,4.62-.06.84-.15,1.68-.19,2.52,0,.55-.09,1.11-.16,1.65-.22,1.62-.42,3.25-.66,4.87-.52,3.46-1.24,6.88-2.09,10.27-.47,1.87-1,3.73-1.57,5.57-1.1,3.58-2.4,7.08-3.83,10.54-1.2,2.9-2.56,5.72-4,8.51q-2,3.89-4.34,7.6-2.77,4.42-5.92,8.57-1.62,2.13-3.35,4.17c-1.26,1.49-2.58,2.94-3.9,4.37s-2.43,2.55-3.71,3.76c-1.58,1.49-3.18,3-4.84,4.35s-3.39,2.79-5.15,4.09q-4,3-8.3,5.55c-2.26,1.35-4.55,2.63-6.91,3.8-3.09,1.53-6.25,2.92-9.48,4.13a105,105,0,0,1-12.86,3.93q-3.94.93-7.94,1.58c-1.52.25-3.05.45-4.58.65-1.19.16-2.4.19-3.59.35-.86.12-1.74.05-2.59.23h-.14c-1.23.05-2.46.14-3.68.15-2.8,0-5.6,0-8.4,0-1.3,0-2.6-.12-3.89-.24-.72-.07-1.44-.1-2.16-.17-1.17-.12-2.35-.23-3.52-.4s-2.24-.3-3.36-.47c-1.91-.29-3.8-.66-5.68-1.06q-4-.85-7.85-2-3-.88-5.91-1.94-3.31-1.19-6.52-2.59c-2.61-1.14-5.18-2.36-7.69-3.72q-3.15-1.7-6.21-3.57c-.25-.15-.5-.29-.73-.47s-.49-.17-.4-.42.36-.1.54-.06c.71.16,1.45.07,2.16.23a2.61,2.61,0,0,0,.36,0c2.41.19,4.82.18,7.23.17.51,0,1,0,1.52,0,1.23,0,2.45-.12,3.68-.25.57-.06,1.15-.1,1.73-.15,1.27-.13,2.54-.3,3.8-.5a76.12,76.12,0,0,0,15.2-4.07,75.23,75.23,0,0,0,8-3.62A72.27,72.27,0,0,0,125.6,205l2.34-1.71C128,203.24,128.11,203.16,128.33,203Z"/><circle class="cls-1" cx="160" cy="160" r="151.25"/></g></svg>