<svg id="Layer_1" data-name="Layer 1" xmlns="http://www.w3.org/2000/svg" viewBox="0 0 302.5 302.5"><defs><style>.cls-1{fill:#fff;}</style></defs><title>twitter-light</title><g id="Twitter_Icon" data-name="Twitter Icon"><path class="cls-1" d="M128.33,203c-.58-.06-1-.13-1.44-.15a31.69,31.69,0,0,1-4.23-.5,38.66,38.66,0,0,1-8.57-2.6,38.72,38.72,0,0,1-9.9-6.33c-.78-.69-1.53-1.41-2.25-2.15a36.61,36.61,0,0,1-3.73-4.51A39.12,39.12,0,0,1,95.33,182a42.93,42.93,0,0,1-2-4.87c0-.09-.06-.19-.08-.28-.08-.32,0-.45.37-.41s.76.12,1.14.18c.71.11,1.43.18,2.15.26a44.54,44.54,0,0,0,5.42.12,24.91,24.91,0,0,0,2.59-.23c.77-.08,1.53-.19,2.29-.34l2.79-.59-2.9-.78a33.94,33.94,0,0,1-4.55-1.66,36.1,36.1,0,0,1-6.36-3.57A37.2,37.2,0,0,1,92.56,167c-.68-.61-1.36-1.23-2-1.89a38.64,38.64,0,0,1-7.27-10.56,38.48,38.48,0,0,1-2.45-7,40.28,40.28,0,0,1-.83-4.62,28.88,28.88,0,0,1-.2-4.26,1.41,1.41,0,0,1,0-.29.2.2,0,0,1,.32-.17l.71.35a37.87,37.87,0,0,0,8.73,3.23,32.34,32.34,0,0,0,3.91.7c.89.1,1.77.2,2.66.26h.43c0-.21-.18-.25-.29-.33a38.61,38.61,0,0,1-5.55-4.74,39.55,39.55,0,0,1-5.19-6.76,37.39,37.39,0,0,1-3.82-8.57A38.42,38.42,0,0,1,80.11,109a27,27,0,0,1,.32-3.23,31.68,31.68,0,0,1,.63-3.34,40,40,0,0,1,1.27-4.3c.43-1.21,1-2.38,1.49-3.53.36-.76.78-1.5,1.18-2.24a.94.94,0,0,1,.12-.18.24.24,0,0,1,.32-.05s0,0,0,.05l.79.94L88.74,96c1,1.13,2.08,2.15,3.08,3.27,1.26,1.4,2.67,2.65,4,3.94,1.54,1.46,3.16,2.83,4.8,4.18a108.51,108.51,0,0,0,9.44,6.94q3.63,2.39,7.45,4.45,2.61,1.41,5.29,2.69c2.67,1.27,5.37,2.43,8.12,3.46,1.67.63,3.35,1.23,5.05,1.77a107.17,107.17,0,0,0,11,2.89c1.68.34,3.36.67,5,.94,1.21.2,2.43.34,3.65.49s2.25.28,3.37.39c.84.08,1.68.13,2.52.18a7.91,7.91,0,0,1,1.08.11,2.16,2.16,0,0,0,.36,0c.4,0,.48-.09.42-.47-.14-.81-.29-1.61-.43-2.42s-.19-1.53-.28-2.29a42.21,42.21,0,0,1-.12-4.77,27,27,0,0,1,.26-3.24,35.39,35.39,0,0,1,1-5.32,37.28,37.28,0,0,1,2.32-6.31,38,38,0,0,1,4.57-7.36,37.61,37.61,0,0,1,4.68-4.93A40,40,0,0,1,180.1,91a38.4,38.4,0,0,1,7.17-3.58,37.47,37.47,0,0,1,6.83-1.85c1-.17,1.91-.27,2.86-.38a47.48,47.48,0,0,1,4.77-.13,32.27,32.27,0,0,1,5.46.53,37.57,37.57,0,0,1,12.13,4.33,38.7,38.7,0,0,1,4.81,3.21,34.62,34.62,0,0,1,3.51,3.12,3.07,3.07,0,0,1,.25.26,1.06,1.06,0,0,0,1.21.36A76.69,76.69,0,0,0,239,94.09c2.25-.8,4.46-1.71,6.63-2.71S250,89.22,252.09,88l.19-.09a.14.14,0,0,1,.19,0,.15.15,0,0,1,0,.13,2,2,0,0,1-.09.35,38.43,38.43,0,0,1-6.1,11.28,35.67,35.67,0,0,1-3.83,4.23,39.6,39.6,0,0,1-5.4,4.25c-.2.13-.38.27-.61.44a1.71,1.71,0,0,0,.78,0,80.91,80.91,0,0,0,9.62-2,71.39,71.39,0,0,0,7.41-2.45l2.68-1.1a4.42,4.42,0,0,1,.48-.15.11.11,0,0,1,.11.09.09.09,0,0,1,0,0,2,2,0,0,1-.17.32c-1.13,1.69-2.34,3.3-3.6,4.9a81.48,81.48,0,0,1-8,8.61c-1.37,1.29-2.81,2.5-4.29,3.66-.78.61-1.56,1.22-2.36,1.8a.73.73,0,0,0-.36.73,60.46,60.46,0,0,1,.1,6.73c0,1.54-.11,3.08-.22,4.62-.06.84-.15,1.68-.19,2.52a13,13,0,0,1-.16,1.65c-.22,1.62-.42,3.25-.66,4.87-.52,3.46-1.24,6.88-2.09,10.27-.47,1.87-1,3.73-1.57,5.57-1.1,3.58-2.4,7.08-3.83,10.54-1.2,2.9-2.56,5.72-4,8.51-1.33,2.59-2.78,5.13-4.34,7.6q-2.78,4.43-5.92,8.57-1.62,2.13-3.35,4.17c-1.26,1.49-2.58,2.94-3.9,4.37s-2.43,2.55-3.71,3.76c-1.58,1.49-3.18,3-4.84,4.35s-3.39,2.79-5.15,4.09a92.23,92.23,0,0,1-8.3,5.55c-2.26,1.35-4.55,2.63-6.91,3.8a102.11,102.11,0,0,1-9.48,4.13,104.81,104.81,0,0,1-12.86,3.93c-2.63.62-5.27,1.15-7.94,1.58-1.52.25-3,.45-4.58.65-1.19.16-2.4.19-3.59.35-.86.12-1.74.05-2.59.23h-.14c-1.23.05-2.46.14-3.68.15h-8.4c-1.3,0-2.6-.12-3.89-.24-.72-.07-1.44-.1-2.16-.17-1.17-.12-2.35-.23-3.52-.4s-2.24-.3-3.36-.47c-1.91-.29-3.8-.66-5.68-1.06-2.67-.57-5.28-1.23-7.85-2-2-.59-4-1.23-5.91-1.94-2.21-.79-4.38-1.66-6.52-2.59-2.61-1.14-5.18-2.36-7.69-3.72q-3.15-1.69-6.21-3.57a7,7,0,0,1-.73-.47c-.23-.18-.49-.17-.4-.42s.36-.1.54-.06c.71.16,1.45.07,2.16.23h.36c2.41.19,4.82.18,7.23.17h1.52a35,35,0,0,0,3.68-.25c.57-.06,1.15-.1,1.73-.15,1.27-.13,2.54-.3,3.8-.5a75.17,75.17,0,0,0,23.2-7.69,71.65,71.65,0,0,0,8.87-5.3l2.34-1.71Z" transform="translate(-8.75 -8.75)"/><circle class="cls-1" cx="151.25" cy="151.25" r="151.25"/></g></svg>