<svg id="Layer_1" data-name="Layer 1" xmlns="http://www.w3.org/2000/svg" viewBox="0 0 1025 1025"><defs><style>.cls-1{opacity:0.85;}.cls-10,.cls-11,.cls-12,.cls-13,.cls-14,.cls-15,.cls-16,.cls-17,.cls-18,.cls-19,.cls-2,.cls-20,.cls-21,.cls-22,.cls-23,.cls-24,.cls-25,.cls-26,.cls-27,.cls-28,.cls-29,.cls-3,.cls-30,.cls-31,.cls-32,.cls-33,.cls-34,.cls-35,.cls-36,.cls-37,.cls-38,.cls-39,.cls-4,.cls-40,.cls-41,.cls-42,.cls-43,.cls-44,.cls-45,.cls-46,.cls-47,.cls-48,.cls-49,.cls-5,.cls-50,.cls-51,.cls-52,.cls-53,.cls-54,.cls-55,.cls-56,.cls-57,.cls-58,.cls-59,.cls-6,.cls-60,.cls-61,.cls-62,.cls-63,.cls-64,.cls-65,.cls-66,.cls-67,.cls-68,.cls-69,.cls-7,.cls-70,.cls-71,.cls-72,.cls-73,.cls-74,.cls-75,.cls-76,.cls-77,.cls-78,.cls-79,.cls-8,.cls-80,.cls-81,.cls-82,.cls-83,.cls-84,.cls-85,.cls-9{fill:none;stroke:#000;stroke-linecap:round;stroke-miterlimit:10;}.cls-2,.cls-3,.cls-4,.cls-5{stroke-width:2.31px;}.cls-3{stroke-dasharray:0 6.89;}.cls-4{stroke-dasharray:0 6.81;}.cls-5{stroke-dasharray:0 7.11;}.cls-6,.cls-7,.cls-8,.cls-9{stroke-width:2.46px;}.cls-7{stroke-dasharray:0 7.35;}.cls-8{stroke-dasharray:0 7.26;}.cls-9{stroke-dasharray:0 7.58;}.cls-10,.cls-11,.cls-12,.cls-13{stroke-width:2.62px;}.cls-11{stroke-dasharray:0 7.83;}.cls-12{stroke-dasharray:0 7.74;}.cls-13{stroke-dasharray:0 8.08;}.cls-14,.cls-15,.cls-16,.cls-17{stroke-width:2.79px;}.cls-15{stroke-dasharray:0 8.35;}.cls-16{stroke-dasharray:0 8.25;}.cls-17{stroke-dasharray:0 8.62;}.cls-18,.cls-19,.cls-20,.cls-21{stroke-width:2.98px;}.cls-19{stroke-dasharray:0 8.9;}.cls-20{stroke-dasharray:0 8.8;}.cls-21{stroke-dasharray:0 9.19;}.cls-22,.cls-23,.cls-24,.cls-25{stroke-width:3.17px;}.cls-23{stroke-dasharray:0 9.49;}.cls-24{stroke-dasharray:0 9.38;}.cls-25{stroke-dasharray:0 9.79;}.cls-26,.cls-27,.cls-28,.cls-29{stroke-width:3.38px;}.cls-27{stroke-dasharray:0 10.11;}.cls-28{stroke-dasharray:0 10;}.cls-29{stroke-dasharray:0 10.44;}.cls-30,.cls-31,.cls-32,.cls-33{stroke-width:3.61px;}.cls-31{stroke-dasharray:0 10.78;}.cls-32{stroke-dasharray:0 10.66;}.cls-33{stroke-dasharray:0 11.13;}.cls-34,.cls-35,.cls-36,.cls-37{stroke-width:3.85px;}.cls-35{stroke-dasharray:0 11.49;}.cls-36{stroke-dasharray:0 11.36;}.cls-37{stroke-dasharray:0 11.86;}.cls-38,.cls-39,.cls-40,.cls-41{stroke-width:4.1px;}.cls-39{stroke-dasharray:0 12.25;}.cls-40{stroke-dasharray:0 12.11;}.cls-41{stroke-dasharray:0 12.65;}.cls-42,.cls-43,.cls-44,.cls-45{stroke-width:4.37px;}.cls-43{stroke-dasharray:0 13.06;}.cls-44{stroke-dasharray:0 12.91;}.cls-45{stroke-dasharray:0 13.48;}.cls-46,.cls-47,.cls-48,.cls-49{stroke-width:4.66px;}.cls-47{stroke-dasharray:0 13.92;}.cls-48{stroke-dasharray:0 13.76;}.cls-49{stroke-dasharray:0 14.37;}.cls-50,.cls-51,.cls-52,.cls-53{stroke-width:4.97px;}.cls-51{stroke-dasharray:0 14.84;}.cls-52{stroke-dasharray:0 14.67;}.cls-53{stroke-dasharray:0 15.32;}.cls-54,.cls-55,.cls-56,.cls-57{stroke-width:5.29px;}.cls-55{stroke-dasharray:0 15.82;}.cls-56{stroke-dasharray:0 15.64;}.cls-57{stroke-dasharray:0 16.33;}.cls-58,.cls-59,.cls-60,.cls-61{stroke-width:5.64px;}.cls-59{stroke-dasharray:0 16.86;}.cls-60{stroke-dasharray:0 16.67;}.cls-61{stroke-dasharray:0 17.41;}.cls-62,.cls-63,.cls-64,.cls-65{stroke-width:6.02px;}.cls-63{stroke-dasharray:0 17.97;}.cls-64{stroke-dasharray:0 17.77;}.cls-65{stroke-dasharray:0 18.56;}.cls-66,.cls-67,.cls-68,.cls-69{stroke-width:6.41px;}.cls-67{stroke-dasharray:0 19.16;}.cls-68{stroke-dasharray:0 18.94;}.cls-69{stroke-dasharray:0 19.78;}.cls-70,.cls-71,.cls-72,.cls-73{stroke-width:6.84px;}.cls-71{stroke-dasharray:0 20.43;}.cls-72{stroke-dasharray:0 20.19;}.cls-73{stroke-dasharray:0 21.09;}.cls-74,.cls-75,.cls-76,.cls-77{stroke-width:7.29px;}.cls-75{stroke-dasharray:0 21.77;}.cls-76{stroke-dasharray:0 21.52;}.cls-77{stroke-dasharray:0 22.48;}.cls-78,.cls-79,.cls-80,.cls-81{stroke-width:7.77px;}.cls-79{stroke-dasharray:0 23.21;}.cls-80{stroke-dasharray:0 22.94;}.cls-81{stroke-dasharray:0 23.96;}.cls-82,.cls-83,.cls-84,.cls-85{stroke-width:8.28px;}.cls-83{stroke-dasharray:0 24.74;}.cls-84{stroke-dasharray:0 24.46;}.cls-85{stroke-dasharray:0 25.54;}</style></defs><title>Ben-Portfolio</title><g class="cls-1"><line class="cls-2" x1="485.89" y1="641.83" x2="485.89" y2="641.83"/><line class="cls-3" x1="486.84" y1="635.17" x2="520.53" y2="398.73"/><line class="cls-2" x1="521" y1="395.4" x2="521" y2="395.4"/><line class="cls-4" x1="524.16" y1="401.29" x2="557.32" y2="463.14"/><line class="cls-2" x1="558.9" y1="466.09" x2="558.9" y2="466.09"/><line class="cls-5" x1="564.31" y1="461.38" x2="577.84" y2="449.62"/><line class="cls-2" x1="580.54" y1="447.27" x2="580.54" y2="447.27"/><line class="cls-6" x1="441.32" y1="621.53" x2="441.32" y2="621.53"/><line class="cls-7" x1="444.69" y1="615.49" x2="564.13" y2="401.03"/><line class="cls-6" x1="565.81" y1="398.01" x2="565.81" y2="398.01"/><line class="cls-8" x1="567.15" y1="404.59" x2="581.27" y2="473.66"/><line class="cls-6" x1="581.95" y1="476.95" x2="581.95" y2="476.95"/><line class="cls-9" x1="589.45" y1="474.15" x2="608.19" y2="467.14"/><line class="cls-6" x1="611.94" y1="465.74" x2="611.94" y2="465.74"/><line class="cls-10" x1="400.29" y1="588.45" x2="400.29" y2="588.45"/><line class="cls-11" x1="406.05" y1="583.74" x2="610.44" y2="416.69"/><line class="cls-10" x1="613.32" y1="414.34" x2="613.32" y2="414.34"/><line class="cls-12" x1="612.46" y1="421.01" x2="603.47" y2="491.06"/><line class="cls-10" x1="603.04" y1="494.4" x2="603.04" y2="494.4"/><line class="cls-13" x1="612.13" y1="494.05" x2="634.85" y2="493.18"/><line class="cls-10" x1="639.39" y1="493.01" x2="639.39" y2="493.01"/><line class="cls-14" x1="367.56" y1="544.31" x2="367.56" y2="544.31"/><line class="cls-15" x1="375.43" y1="541.61" x2="654.99" y2="445.9"/><line class="cls-14" x1="658.93" y1="444.55" x2="658.93" y2="444.55"/><line class="cls-16" x1="655.66" y1="450.63" x2="621.34" y2="514.47"/><line class="cls-14" x1="619.7" y1="517.51" x2="619.7" y2="517.51"/><line class="cls-17" x1="629.65" y1="519.99" x2="654.51" y2="526.19"/><line class="cls-14" x1="659.48" y1="527.43" x2="659.48" y2="527.43"/><line class="cls-18" x1="347.68" y1="492.21" x2="347.68" y2="492.21"/><line class="cls-19" x1="357.14" y1="492.08" x2="692.88" y2="487.44"/><line class="cls-18" x1="697.61" y1="487.38" x2="697.61" y2="487.38"/><line class="cls-20" x1="691.94" y1="492.15" x2="632.43" y2="542.26"/><line class="cls-18" x1="629.6" y1="544.65" x2="629.6" y2="544.65"/><line class="cls-21" x1="639.48" y1="550.08" x2="664.17" y2="563.65"/><line class="cls-18" x1="669.11" y1="566.37" x2="669.11" y2="566.37"/><line class="cls-22" x1="344.5" y1="436.53" x2="344.5" y2="436.53"/><line class="cls-23" x1="354.77" y1="439.32" x2="719.24" y2="538.66"/><line class="cls-22" x1="724.38" y1="540.06" x2="724.38" y2="540.06"/><line class="cls-24" x1="716.58" y1="542.85" x2="634.66" y2="572.12"/><line class="cls-22" x1="630.76" y1="573.51" x2="630.76" y2="573.51"/><line class="cls-25" x1="639.53" y1="581.73" x2="661.45" y2="602.27"/><line class="cls-22" x1="665.84" y1="606.38" x2="665.84" y2="606.38"/><line class="cls-26" x1="360.61" y1="382.58" x2="360.61" y2="382.58"/><line class="cls-27" x1="370.73" y1="388.41" x2="729.75" y2="595.52"/><line class="cls-26" x1="734.81" y1="598.44" x2="734.81" y2="598.44"/><line class="cls-28" x1="725.4" y1="598.68" x2="626.59" y2="601.2"/><line class="cls-26" x1="621.89" y1="601.32" x2="621.89" y2="601.32"/><line class="cls-29" x1="628.48" y1="611.85" x2="644.96" y2="638.16"/><line class="cls-26" x1="648.25" y1="643.42" x2="648.25" y2="643.42"/><line class="cls-30" x1="396.97" y1="336.25" x2="396.97" y2="336.25"/><line class="cls-31" x1="405.85" y1="344.93" x2="721.14" y2="652.84"/><line class="cls-30" x1="725.58" y1="657.18" x2="725.58" y2="657.18"/><line class="cls-32" x1="715.33" y1="654.5" x2="607.66" y2="626.37"/><line class="cls-30" x1="602.53" y1="625.03" x2="602.53" y2="625.03"/><line class="cls-33" x1="605.96" y1="637.07" x2="614.53" y2="667.19"/><line class="cls-30" x1="616.24" y1="673.21" x2="616.24" y2="673.21"/><line class="cls-34" x1="452.53" y1="303.43" x2="452.53" y2="303.43"/><line class="cls-35" x1="459.08" y1="314.42" x2="691.71" y2="704.7"/><line class="cls-34" x1="694.98" y1="710.19" x2="694.98" y2="710.19"/><line class="cls-36" x1="684.84" y1="704.48" x2="578.35" y2="644.45"/><line class="cls-34" x1="573.28" y1="641.59" x2="573.28" y2="641.59"/><line class="cls-37" x1="572.76" y1="654.11" x2="571.44" y2="685.4"/><line class="cls-34" x1="571.18" y1="691.66" x2="571.18" y2="691.66"/><line class="cls-38" x1="524.1" y1="289.38" x2="524.1" y2="289.38"/><line class="cls-39" x1="527.32" y1="301.86" x2="641.68" y2="744.92"/><line class="cls-38" x1="643.29" y1="751.16" x2="643.29" y2="751.16"/><line class="cls-40" x1="634.34" y1="742.59" x2="540.33" y2="652.59"/><line class="cls-38" x1="535.86" y1="648.31" x2="535.86" y2="648.31"/><line class="cls-41" x1="530.9" y1="660.05" x2="518.49" y2="689.4"/><line class="cls-38" x1="516.01" y1="695.27" x2="516.01" y2="695.27"/><line class="cls-42" x1="606.39" y1="298.14" x2="606.39" y2="298.14"/><line class="cls-43" x1="605.49" y1="311.01" x2="573.5" y2="767.72"/><line class="cls-42" x1="573.05" y1="774.15" x2="573.05" y2="774.15"/><line class="cls-44" x1="566.38" y1="763.23" x2="496.39" y2="648.59"/><line class="cls-42" x1="493.05" y1="643.13" x2="493.05" y2="643.13"/><line class="cls-45" x1="483.57" y1="652.76" x2="459.85" y2="676.85"/><line class="cls-42" x1="455.11" y1="681.66" x2="455.11" y2="681.66"/><line class="cls-46" x1="692.24" y1="331.9" x2="692.24" y2="331.9"/><line class="cls-47" x1="686.75" y1="343.85" x2="491.8" y2="768.33"/><line class="cls-46" x1="489.06" y1="774.3" x2="489.06" y2="774.3"/><line class="cls-48" x1="485.69" y1="761.86" x2="450.29" y2="631.2"/><line class="cls-46" x1="448.61" y1="624.98" x2="448.61" y2="624.98"/><line class="cls-49" x1="434.98" y1="631.21" x2="400.89" y2="646.79"/><line class="cls-46" x1="394.07" y1="649.9" x2="394.07" y2="649.9"/><line class="cls-50" x1="773.17" y1="390.53" x2="773.17" y2="390.53"/><line class="cls-51" x1="763.04" y1="400.2" x2="403.3" y2="743.66"/><line class="cls-50" x1="398.23" y1="748.5" x2="398.23" y2="748.5"/><line class="cls-52" x1="398.96" y1="735.62" x2="406.59" y2="600.42"/><line class="cls-50" x1="406.95" y1="593.98" x2="406.95" y2="593.98"/><line class="cls-53" x1="390.03" y1="595.7" x2="347.72" y2="599.97"/><line class="cls-50" x1="339.26" y1="600.83" x2="339.26" y2="600.83"/><line class="cls-54" x1="840.05" y1="471.3" x2="840.05" y2="471.3"/><line class="cls-55" x1="825.7" y1="477.37" x2="316.3" y2="692.85"/><line class="cls-54" x1="309.13" y1="695.89" x2="309.13" y2="695.89"/><line class="cls-56" x1="314.44" y1="683.87" x2="370.16" y2="557.64"/><line class="cls-54" x1="372.82" y1="551.63" x2="372.82" y2="551.63"/><line class="cls-57" x1="353.92" y1="548.03" x2="306.7" y2="539.03"/><line class="cls-54" x1="297.25" y1="537.22" x2="297.25" y2="537.22"/><line class="cls-58" x1="883.97" y1="568.79" x2="883.97" y2="568.79"/><line class="cls-59" x1="866.33" y1="570.13" x2="240.13" y2="617.65"/><line class="cls-58" x1="231.31" y1="618.32" x2="231.31" y2="618.32"/><line class="cls-60" x1="241.27" y1="608.52" x2="345.82" y2="505.7"/><line class="cls-58" x1="350.79" y1="500.8" x2="350.79" y2="500.8"/><line class="cls-61" x1="331.64" y1="491.54" x2="283.76" y2="468.38"/><line class="cls-58" x1="274.19" y1="463.75" x2="274.19" y2="463.75"/><line class="cls-62" x1="897.19" y1="675.08" x2="897.19" y2="675.08"/><line class="cls-63" x1="877.66" y1="670.9" x2="184.21" y2="522.59"/><line class="cls-62" x1="174.45" y1="520.5" x2="174.45" y2="520.5"/><line class="cls-64" x1="188.65" y1="514.26" x2="337.74" y2="448.77"/><line class="cls-62" x1="344.84" y1="445.66" x2="344.84" y2="445.66"/><line class="cls-65" x1="327.4" y1="430.93" x2="283.79" y2="394.11"/><line class="cls-62" x1="275.06" y1="386.75" x2="275.06" y2="386.75"/><line class="cls-66" x1="874.17" y1="780.25" x2="874.17" y2="780.25"/><line class="cls-67" x1="854.52" y1="770.24" x2="157.16" y2="414.9"/><line class="cls-66" x1="147.34" y1="409.89" x2="147.34" y2="409.89"/><line class="cls-68" x1="164.88" y1="408.35" x2="349.01" y2="392.14"/><line class="cls-66" x1="357.78" y1="391.37" x2="357.78" y2="391.37"/><line class="cls-69" x1="344.1" y1="371.97" x2="309.89" y2="323.48"/><line class="cls-66" x1="303.05" y1="313.78" x2="303.05" y2="313.78"/><line class="cls-70" x1="812.35" y1="873.15" x2="812.35" y2="873.15"/><line class="cls-71" x1="794.63" y1="857.56" x2="165.74" y2="304.12"/><line class="cls-70" x1="156.89" y1="296.33" x2="156.89" y2="296.33"/><line class="cls-72" x1="176.38" y1="300.28" x2="381.07" y2="341.76"/><line class="cls-70" x1="390.82" y1="343.74" x2="390.82" y2="343.74"/><line class="cls-73" x1="382.84" y1="321.06" x2="362.91" y2="264.37"/><line class="cls-70" x1="358.92" y1="253.03" x2="358.92" y2="253.03"/><line class="cls-74" x1="712.91" y1="942.41" x2="712.91" y2="942.41"/><line class="cls-75" x1="699.24" y1="922.11" x2="213.92" y2="201.42"/><line class="cls-74" x1="207.08" y1="191.27" x2="207.08" y2="191.27"/><line class="cls-76" x1="226.76" y1="201.05" x2="433.41" y2="303.76"/><line class="cls-74" x1="443.26" y1="308.65" x2="443.26" y2="308.65"/><line class="cls-77" x1="442.6" y1="284.62" x2="440.96" y2="224.54"/><line class="cls-74" x1="440.63" y1="212.53" x2="440.63" y2="212.53"/><line class="cls-78" x1="581.13" y1="977.55" x2="581.13" y2="977.55"/><line class="cls-79" x1="573.48" y1="954.02" x2="302.04" y2="118.63"/><line class="cls-78" x1="298.22" y1="106.86" x2="298.22" y2="106.86"/><line class="cls-80" x1="316.06" y1="122.25" x2="503.33" y2="283.79"/><line class="cls-78" x1="512.25" y1="291.48" x2="512.25" y2="291.48"/><line class="cls-81" x1="519.98" y1="268.42" x2="539.3" y2="210.78"/><line class="cls-78" x1="543.16" y1="199.25" x2="543.16" y2="199.25"/><line class="cls-82" x1="426.36" y1="970.25" x2="426.36" y2="970.25"/><line class="cls-83" x1="426.36" y1="945.51" x2="426.36" y2="67.12"/><line class="cls-82" x1="426.36" y1="54.75" x2="426.36" y2="54.75"/><line class="cls-84" x1="440.23" y1="74.89" x2="585.9" y2="286.4"/><line class="cls-82" x1="592.84" y1="296.47" x2="592.84" y2="296.47"/><line class="cls-85" x1="609.29" y1="276.93" x2="650.41" y2="228.08"/><line class="cls-82" x1="658.64" y1="218.31" x2="658.64" y2="218.31"/></g></svg>