<svg xmlns="http://www.w3.org/2000/svg" viewBox="0 0 756.07 930.83"><defs><style>.cls-1{opacity:0.8;}.cls-10,.cls-11,.cls-12,.cls-13,.cls-14,.cls-15,.cls-16,.cls-17,.cls-18,.cls-19,.cls-2,.cls-20,.cls-21,.cls-22,.cls-23,.cls-24,.cls-25,.cls-26,.cls-27,.cls-28,.cls-29,.cls-3,.cls-30,.cls-31,.cls-32,.cls-33,.cls-34,.cls-35,.cls-36,.cls-37,.cls-38,.cls-39,.cls-4,.cls-40,.cls-41,.cls-42,.cls-43,.cls-44,.cls-45,.cls-46,.cls-47,.cls-48,.cls-49,.cls-5,.cls-50,.cls-51,.cls-52,.cls-53,.cls-54,.cls-55,.cls-56,.cls-57,.cls-58,.cls-59,.cls-6,.cls-60,.cls-61,.cls-62,.cls-63,.cls-64,.cls-65,.cls-66,.cls-67,.cls-68,.cls-69,.cls-7,.cls-70,.cls-71,.cls-72,.cls-73,.cls-74,.cls-75,.cls-76,.cls-77,.cls-78,.cls-79,.cls-8,.cls-80,.cls-81,.cls-82,.cls-83,.cls-84,.cls-85,.cls-9{fill:none;stroke:#000;stroke-linecap:round;stroke-miterlimit:10;}.cls-2,.cls-3,.cls-4,.cls-5{stroke-width:2.31px;}.cls-3{stroke-dasharray:0 6.89;}.cls-4{stroke-dasharray:0 6.81;}.cls-5{stroke-dasharray:0 7.11;}.cls-6,.cls-7,.cls-8,.cls-9{stroke-width:2.46px;}.cls-7{stroke-dasharray:0 7.35;}.cls-8{stroke-dasharray:0 7.26;}.cls-9{stroke-dasharray:0 7.58;}.cls-10,.cls-11,.cls-12,.cls-13{stroke-width:2.62px;}.cls-11{stroke-dasharray:0 7.83;}.cls-12{stroke-dasharray:0 7.74;}.cls-13{stroke-dasharray:0 8.08;}.cls-14,.cls-15,.cls-16,.cls-17{stroke-width:2.79px;}.cls-15{stroke-dasharray:0 8.35;}.cls-16{stroke-dasharray:0 8.25;}.cls-17{stroke-dasharray:0 8.62;}.cls-18,.cls-19,.cls-20,.cls-21{stroke-width:2.98px;}.cls-19{stroke-dasharray:0 8.9;}.cls-20{stroke-dasharray:0 8.8;}.cls-21{stroke-dasharray:0 9.19;}.cls-22,.cls-23,.cls-24,.cls-25{stroke-width:3.17px;}.cls-23{stroke-dasharray:0 9.49;}.cls-24{stroke-dasharray:0 9.38;}.cls-25{stroke-dasharray:0 9.79;}.cls-26,.cls-27,.cls-28,.cls-29{stroke-width:3.38px;}.cls-27{stroke-dasharray:0 10.11;}.cls-28{stroke-dasharray:0 10;}.cls-29{stroke-dasharray:0 10.44;}.cls-30,.cls-31,.cls-32,.cls-33{stroke-width:3.61px;}.cls-31{stroke-dasharray:0 10.78;}.cls-32{stroke-dasharray:0 10.66;}.cls-33{stroke-dasharray:0 11.13;}.cls-34,.cls-35,.cls-36,.cls-37{stroke-width:3.85px;}.cls-35{stroke-dasharray:0 11.49;}.cls-36{stroke-dasharray:0 11.36;}.cls-37{stroke-dasharray:0 11.86;}.cls-38,.cls-39,.cls-40,.cls-41{stroke-width:4.1px;}.cls-39{stroke-dasharray:0 12.25;}.cls-40{stroke-dasharray:0 12.11;}.cls-41{stroke-dasharray:0 12.65;}.cls-42,.cls-43,.cls-44,.cls-45{stroke-width:4.37px;}.cls-43{stroke-dasharray:0 13.06;}.cls-44{stroke-dasharray:0 12.91;}.cls-45{stroke-dasharray:0 13.48;}.cls-46,.cls-47,.cls-48,.cls-49{stroke-width:4.66px;}.cls-47{stroke-dasharray:0 13.92;}.cls-48{stroke-dasharray:0 13.76;}.cls-49{stroke-dasharray:0 14.37;}.cls-50,.cls-51,.cls-52,.cls-53{stroke-width:4.97px;}.cls-51{stroke-dasharray:0 14.84;}.cls-52{stroke-dasharray:0 14.67;}.cls-53{stroke-dasharray:0 15.32;}.cls-54,.cls-55,.cls-56,.cls-57{stroke-width:5.29px;}.cls-55{stroke-dasharray:0 15.82;}.cls-56{stroke-dasharray:0 15.64;}.cls-57{stroke-dasharray:0 16.33;}.cls-58,.cls-59,.cls-60,.cls-61{stroke-width:5.64px;}.cls-59{stroke-dasharray:0 16.86;}.cls-60{stroke-dasharray:0 16.67;}.cls-61{stroke-dasharray:0 17.41;}.cls-62,.cls-63,.cls-64,.cls-65{stroke-width:6.02px;}.cls-63{stroke-dasharray:0 17.97;}.cls-64{stroke-dasharray:0 17.77;}.cls-65{stroke-dasharray:0 18.56;}.cls-66,.cls-67,.cls-68,.cls-69{stroke-width:6.41px;}.cls-67{stroke-dasharray:0 19.16;}.cls-68{stroke-dasharray:0 18.94;}.cls-69{stroke-dasharray:0 19.78;}.cls-70,.cls-71,.cls-72,.cls-73{stroke-width:6.84px;}.cls-71{stroke-dasharray:0 20.43;}.cls-72{stroke-dasharray:0 20.19;}.cls-73{stroke-dasharray:0 21.09;}.cls-74,.cls-75,.cls-76,.cls-77{stroke-width:7.29px;}.cls-75{stroke-dasharray:0 21.77;}.cls-76{stroke-dasharray:0 21.52;}.cls-77{stroke-dasharray:0 22.48;}.cls-78,.cls-79,.cls-80,.cls-81{stroke-width:7.77px;}.cls-79{stroke-dasharray:0 23.21;}.cls-80{stroke-dasharray:0 22.94;}.cls-81{stroke-dasharray:0 23.96;}.cls-82,.cls-83,.cls-84,.cls-85{stroke-width:8.28px;}.cls-83{stroke-dasharray:0 24.74;}.cls-84{stroke-dasharray:0 24.46;}.cls-85{stroke-dasharray:0 25.54;}</style></defs><title>Asset 280</title><g id="Layer_2" data-name="Layer 2"><g id="Layer_1-2" data-name="Layer 1"><g class="cls-1"><line class="cls-2" x1="341.75" y1="591.22" x2="341.75" y2="591.22"/><line class="cls-3" x1="342.7" y1="584.56" x2="376.4" y2="348.12"/><line class="cls-2" x1="376.87" y1="344.79" x2="376.87" y2="344.79"/><line class="cls-4" x1="380.03" y1="350.68" x2="413.19" y2="412.53"/><line class="cls-2" x1="414.77" y1="415.48" x2="414.77" y2="415.48"/><line class="cls-5" x1="420.18" y1="410.77" x2="433.7" y2="399.01"/><line class="cls-2" x1="436.41" y1="396.66" x2="436.41" y2="396.66"/><line class="cls-6" x1="297.19" y1="570.92" x2="297.19" y2="570.92"/><line class="cls-7" x1="300.55" y1="564.88" x2="419.99" y2="350.42"/><line class="cls-6" x1="421.68" y1="347.4" x2="421.68" y2="347.4"/><line class="cls-8" x1="423.02" y1="353.98" x2="437.14" y2="423.05"/><line class="cls-6" x1="437.81" y1="426.34" x2="437.81" y2="426.34"/><line class="cls-9" x1="445.31" y1="423.54" x2="464.06" y2="416.53"/><line class="cls-6" x1="467.81" y1="415.13" x2="467.81" y2="415.13"/><line class="cls-10" x1="256.15" y1="537.84" x2="256.15" y2="537.84"/><line class="cls-11" x1="261.91" y1="533.13" x2="466.3" y2="366.08"/><line class="cls-10" x1="469.18" y1="363.73" x2="469.18" y2="363.73"/><line class="cls-12" x1="468.33" y1="370.4" x2="459.33" y2="440.45"/><line class="cls-10" x1="458.9" y1="443.79" x2="458.9" y2="443.79"/><line class="cls-13" x1="467.99" y1="443.44" x2="490.72" y2="442.57"/><line class="cls-10" x1="495.26" y1="442.4" x2="495.26" y2="442.4"/><line class="cls-14" x1="223.42" y1="493.7" x2="223.42" y2="493.7"/><line class="cls-15" x1="231.3" y1="491" x2="510.86" y2="395.29"/><line class="cls-14" x1="514.79" y1="393.94" x2="514.79" y2="393.94"/><line class="cls-16" x1="511.52" y1="400.02" x2="477.2" y2="463.86"/><line class="cls-14" x1="475.57" y1="466.9" x2="475.57" y2="466.9"/><line class="cls-17" x1="485.51" y1="469.38" x2="510.38" y2="475.58"/><line class="cls-14" x1="515.35" y1="476.82" x2="515.35" y2="476.82"/><line class="cls-18" x1="203.55" y1="441.6" x2="203.55" y2="441.6"/><line class="cls-19" x1="213.01" y1="441.47" x2="548.75" y2="436.83"/><line class="cls-18" x1="553.48" y1="436.77" x2="553.48" y2="436.77"/><line class="cls-20" x1="547.81" y1="441.54" x2="488.3" y2="491.65"/><line class="cls-18" x1="485.46" y1="494.04" x2="485.46" y2="494.04"/><line class="cls-21" x1="495.34" y1="499.47" x2="520.04" y2="513.04"/><line class="cls-18" x1="524.98" y1="515.76" x2="524.98" y2="515.76"/><line class="cls-22" x1="200.37" y1="385.92" x2="200.37" y2="385.92"/><line class="cls-23" x1="210.63" y1="388.71" x2="575.11" y2="488.05"/><line class="cls-22" x1="580.24" y1="489.45" x2="580.24" y2="489.45"/><line class="cls-24" x1="572.44" y1="492.24" x2="490.53" y2="521.51"/><line class="cls-22" x1="486.63" y1="522.9" x2="486.63" y2="522.9"/><line class="cls-25" x1="495.4" y1="531.12" x2="517.32" y2="551.66"/><line class="cls-22" x1="521.7" y1="555.77" x2="521.7" y2="555.77"/><line class="cls-26" x1="216.48" y1="331.97" x2="216.48" y2="331.97"/><line class="cls-27" x1="226.59" y1="337.8" x2="585.62" y2="544.91"/><line class="cls-26" x1="590.67" y1="547.83" x2="590.67" y2="547.83"/><line class="cls-28" x1="581.26" y1="548.07" x2="482.46" y2="550.59"/><line class="cls-26" x1="477.75" y1="550.71" x2="477.75" y2="550.71"/><line class="cls-29" x1="484.35" y1="561.24" x2="500.82" y2="587.55"/><line class="cls-26" x1="504.12" y1="592.81" x2="504.12" y2="592.81"/><line class="cls-30" x1="252.84" y1="285.65" x2="252.84" y2="285.65"/><line class="cls-31" x1="261.72" y1="294.32" x2="577.01" y2="602.23"/><line class="cls-30" x1="581.45" y1="606.57" x2="581.45" y2="606.57"/><line class="cls-32" x1="571.19" y1="603.89" x2="463.52" y2="575.76"/><line class="cls-30" x1="458.4" y1="574.42" x2="458.4" y2="574.42"/><line class="cls-33" x1="461.82" y1="586.47" x2="470.39" y2="616.58"/><line class="cls-30" x1="472.11" y1="622.6" x2="472.11" y2="622.6"/><line class="cls-34" x1="308.4" y1="252.82" x2="308.4" y2="252.82"/><line class="cls-35" x1="314.95" y1="263.82" x2="547.57" y2="654.09"/><line class="cls-34" x1="550.85" y1="659.59" x2="550.85" y2="659.59"/><line class="cls-36" x1="540.71" y1="653.87" x2="434.22" y2="593.84"/><line class="cls-34" x1="429.15" y1="590.98" x2="429.15" y2="590.98"/><line class="cls-37" x1="428.62" y1="603.5" x2="427.31" y2="634.79"/><line class="cls-34" x1="427.05" y1="641.05" x2="427.05" y2="641.05"/><line class="cls-38" x1="379.97" y1="238.77" x2="379.97" y2="238.77"/><line class="cls-39" x1="383.19" y1="251.25" x2="497.55" y2="694.31"/><line class="cls-38" x1="499.16" y1="700.55" x2="499.16" y2="700.55"/><line class="cls-40" x1="490.21" y1="691.98" x2="396.2" y2="601.99"/><line class="cls-38" x1="391.72" y1="597.7" x2="391.72" y2="597.7"/><line class="cls-41" x1="386.76" y1="609.44" x2="374.36" y2="638.79"/><line class="cls-38" x1="371.87" y1="644.66" x2="371.87" y2="644.66"/><line class="cls-42" x1="462.25" y1="247.53" x2="462.25" y2="247.53"/><line class="cls-43" x1="461.35" y1="260.4" x2="429.36" y2="717.11"/><line class="cls-42" x1="428.91" y1="723.54" x2="428.91" y2="723.54"/><line class="cls-44" x1="422.25" y1="712.62" x2="352.25" y2="597.98"/><line class="cls-42" x1="348.92" y1="592.52" x2="348.92" y2="592.52"/><line class="cls-45" x1="339.43" y1="602.16" x2="315.72" y2="626.24"/><line class="cls-42" x1="310.97" y1="631.05" x2="310.97" y2="631.05"/><line class="cls-46" x1="548.11" y1="281.29" x2="548.11" y2="281.29"/><line class="cls-47" x1="542.62" y1="293.24" x2="347.67" y2="717.72"/><line class="cls-46" x1="344.92" y1="723.69" x2="344.92" y2="723.69"/><line class="cls-48" x1="341.55" y1="711.25" x2="306.16" y2="580.59"/><line class="cls-46" x1="304.48" y1="574.37" x2="304.48" y2="574.37"/><line class="cls-49" x1="290.84" y1="580.6" x2="256.75" y2="596.18"/><line class="cls-46" x1="249.94" y1="599.29" x2="249.94" y2="599.29"/><line class="cls-50" x1="629.04" y1="339.92" x2="629.04" y2="339.92"/><line class="cls-51" x1="618.91" y1="349.59" x2="259.16" y2="693.05"/><line class="cls-50" x1="254.09" y1="697.89" x2="254.09" y2="697.89"/><line class="cls-52" x1="254.82" y1="685.01" x2="262.45" y2="549.81"/><line class="cls-50" x1="262.82" y1="543.37" x2="262.82" y2="543.37"/><line class="cls-53" x1="245.89" y1="545.09" x2="203.59" y2="549.36"/><line class="cls-50" x1="195.13" y1="550.22" x2="195.13" y2="550.22"/><line class="cls-54" x1="695.92" y1="420.69" x2="695.92" y2="420.69"/><line class="cls-55" x1="681.57" y1="426.76" x2="172.17" y2="642.24"/><line class="cls-54" x1="165" y1="645.28" x2="165" y2="645.28"/><line class="cls-56" x1="170.3" y1="633.26" x2="226.03" y2="507.03"/><line class="cls-54" x1="228.68" y1="501.02" x2="228.68" y2="501.02"/><line class="cls-57" x1="209.79" y1="497.42" x2="162.56" y2="488.42"/><line class="cls-54" x1="153.12" y1="486.61" x2="153.12" y2="486.61"/><line class="cls-58" x1="739.83" y1="518.18" x2="739.83" y2="518.18"/><line class="cls-59" x1="722.19" y1="519.52" x2="96" y2="567.04"/><line class="cls-58" x1="87.18" y1="567.71" x2="87.18" y2="567.71"/><line class="cls-60" x1="97.13" y1="557.91" x2="201.68" y2="455.09"/><line class="cls-58" x1="206.66" y1="450.19" x2="206.66" y2="450.19"/><line class="cls-61" x1="187.51" y1="440.93" x2="139.63" y2="417.77"/><line class="cls-58" x1="130.06" y1="413.14" x2="130.06" y2="413.14"/><line class="cls-62" x1="753.06" y1="624.47" x2="753.06" y2="624.47"/><line class="cls-63" x1="733.53" y1="620.29" x2="40.08" y2="471.98"/><line class="cls-62" x1="30.31" y1="469.89" x2="30.31" y2="469.89"/><line class="cls-64" x1="44.51" y1="463.65" x2="193.61" y2="398.17"/><line class="cls-62" x1="200.71" y1="395.05" x2="200.71" y2="395.05"/><line class="cls-65" x1="183.27" y1="380.32" x2="139.65" y2="343.5"/><line class="cls-62" x1="130.93" y1="336.14" x2="130.93" y2="336.14"/><line class="cls-66" x1="730.03" y1="729.64" x2="730.03" y2="729.64"/><line class="cls-67" x1="710.39" y1="719.63" x2="13.03" y2="364.29"/><line class="cls-66" x1="3.21" y1="359.28" x2="3.21" y2="359.28"/><line class="cls-68" x1="20.74" y1="357.74" x2="204.88" y2="341.53"/><line class="cls-66" x1="213.64" y1="340.76" x2="213.64" y2="340.76"/><line class="cls-69" x1="199.96" y1="321.36" x2="165.76" y2="272.87"/><line class="cls-66" x1="158.92" y1="263.17" x2="158.92" y2="263.17"/><line class="cls-70" x1="668.21" y1="822.55" x2="668.21" y2="822.55"/><line class="cls-71" x1="650.5" y1="806.96" x2="21.61" y2="253.51"/><line class="cls-70" x1="12.75" y1="245.72" x2="12.75" y2="245.72"/><line class="cls-72" x1="32.25" y1="249.67" x2="236.94" y2="291.15"/><line class="cls-70" x1="246.69" y1="293.13" x2="246.69" y2="293.13"/><line class="cls-73" x1="238.71" y1="270.45" x2="218.77" y2="213.76"/><line class="cls-70" x1="214.79" y1="202.43" x2="214.79" y2="202.43"/><line class="cls-74" x1="568.78" y1="891.8" x2="568.78" y2="891.8"/><line class="cls-75" x1="555.11" y1="871.5" x2="69.78" y2="150.81"/><line class="cls-74" x1="62.95" y1="140.66" x2="62.95" y2="140.66"/><line class="cls-76" x1="82.63" y1="150.44" x2="289.28" y2="253.15"/><line class="cls-74" x1="299.12" y1="258.04" x2="299.12" y2="258.04"/><line class="cls-77" x1="298.47" y1="234.01" x2="296.82" y2="173.93"/><line class="cls-74" x1="296.5" y1="161.92" x2="296.5" y2="161.92"/><line class="cls-78" x1="436.99" y1="926.94" x2="436.99" y2="926.94"/><line class="cls-79" x1="429.35" y1="903.41" x2="157.91" y2="68.02"/><line class="cls-78" x1="154.09" y1="56.25" x2="154.09" y2="56.25"/><line class="cls-80" x1="171.92" y1="71.64" x2="359.19" y2="233.18"/><line class="cls-78" x1="368.11" y1="240.87" x2="368.11" y2="240.87"/><line class="cls-81" x1="375.84" y1="217.81" x2="395.17" y2="160.17"/><line class="cls-78" x1="399.03" y1="148.64" x2="399.03" y2="148.64"/><line class="cls-82" x1="282.23" y1="919.64" x2="282.23" y2="919.64"/><line class="cls-83" x1="282.23" y1="894.9" x2="282.23" y2="16.51"/><line class="cls-82" x1="282.23" y1="4.14" x2="282.23" y2="4.14"/><line class="cls-84" x1="296.1" y1="24.28" x2="441.77" y2="235.79"/><line class="cls-82" x1="448.7" y1="245.86" x2="448.7" y2="245.86"/><line class="cls-85" x1="465.15" y1="226.32" x2="506.28" y2="177.47"/><line class="cls-82" x1="514.5" y1="167.7" x2="514.5" y2="167.7"/></g></g></g></svg>