<svg id="Layer_1" data-name="Layer 1" xmlns="http://www.w3.org/2000/svg" viewBox="0 0 825 825"><defs><style>.cls-1,.cls-10,.cls-11,.cls-12,.cls-13,.cls-14,.cls-15,.cls-16,.cls-17,.cls-18,.cls-19,.cls-2,.cls-20,.cls-21,.cls-3,.cls-4,.cls-5,.cls-6,.cls-7,.cls-8,.cls-9{fill:none;stroke:#000;stroke-linecap:round;stroke-miterlimit:10;}.cls-1{stroke-width:1.63px;stroke-dasharray:0 3.25;}.cls-2{stroke-width:1.74px;stroke-dasharray:0 3.48;}.cls-3{stroke-width:1.86px;stroke-dasharray:0 3.72;}.cls-4{stroke-width:1.99px;stroke-dasharray:0 3.97;}.cls-5{stroke-width:2.12px;stroke-dasharray:0 4.25;}.cls-6{stroke-width:2.27px;stroke-dasharray:0 4.54;}.cls-7{stroke-width:2.43px;stroke-dasharray:0 4.86;}.cls-8{stroke-width:2.6px;stroke-dasharray:0 5.19;}.cls-9{stroke-width:2.78px;stroke-dasharray:0 5.55;}.cls-10{stroke-width:2.97px;stroke-dasharray:0 5.94;}.cls-11{stroke-width:3.17px;stroke-dasharray:0 6.35;}.cls-12{stroke-width:3.39px;stroke-dasharray:0 6.79;}.cls-13{stroke-width:3.63px;stroke-dasharray:0 7.26;}.cls-14{stroke-width:3.88px;stroke-dasharray:0 7.76;}.cls-15{stroke-width:4.15px;stroke-dasharray:0 8.29;}.cls-16{stroke-width:4.43px;stroke-dasharray:0 8.87;}.cls-17{stroke-width:4.74px;stroke-dasharray:0 9.48;}.cls-18{stroke-width:5.07px;stroke-dasharray:0 10.14;}.cls-19{stroke-width:5.42px;stroke-dasharray:0 10.84;}.cls-20{stroke-width:5.79px;stroke-dasharray:0 11.59;}.cls-21{stroke-width:6.2px;stroke-dasharray:0 12.39;}</style></defs><title>Ben-Portfolio</title><path class="cls-1" d="M503.42,449.2c-37,21.77-107.65,16.95-157.86-10.78s-61-67.85-24-89.62,107.65-16.95,157.86,10.78S540.39,427.43,503.42,449.2Z"/><path class="cls-2" d="M500.11,469.22c-51.71,8.6-132.86-15.88-181.24-54.66s-45.69-77.19,6-85.79,132.86,15.88,181.24,54.66S551.82,460.63,500.11,469.22Z"/><path class="cls-3" d="M488.57,485.91c-64-7.23-149.93-52-191.95-100s-24.19-81,39.8-73.82,149.93,52,191.95,100S552.57,493.13,488.57,485.91Z"/><path class="cls-4" d="M468.66,497.3c-72.38-24.68-156.21-88.69-187.23-143S284,276,356.34,300.7s156.21,88.69,187.23,143S541,522,468.66,497.3Z"/><path class="cls-5" d="M440.94,501.63c-75.58-42.44-149.58-122.79-165.28-179.48s32.82-68.23,108.4-25.79S533.63,419.16,549.34,475.85,516.52,544.07,440.94,501.63Z"/><path class="cls-6" d="M406.74,497.52c-72.55-59-128.78-150.93-125.6-205.34s64.57-50.69,137.11,8.31S547,451.42,543.85,505.82,479.29,556.51,406.74,497.52Z"/><path class="cls-7" d="M368.16,484.11C305.49,411.4,274.53,314.35,299,267.35s95.15-26.16,157.82,46.55S550.47,483.65,526,530.65,430.83,556.82,368.16,484.11Z"/><path class="cls-8" d="M328,461.26c-45.85-82-45.16-176.28,1.52-210.66s121.7,4.19,167.55,86.15S542.2,513,495.51,547.4,373.81,543.22,328,461.26Z"/><path class="cls-9" d="M289.49,429.64c-22.56-85.29,14.22-168.15,82.16-185.07s141.3,38.51,163.86,123.8-14.22,168.15-82.16,185.07S312.05,514.93,289.49,429.64Z"/><path class="cls-10" d="M256.38,390.78c6.05-81.57,80.85-144,167.07-139.47s151.21,74.34,145.16,155.9-80.85,144-167.07,139.47S250.33,472.35,256.38,390.78Z"/><path class="cls-11" d="M232.33,347.1c38.22-70.1,149.87-103.68,249.37-75s149.18,108.73,111,178.82-149.87,103.68-249.37,75S194.11,417.19,232.33,347.1Z"/><path class="cls-12" d="M220.76,301.74C292.38,251,436.28,253.32,542.18,307s133.68,138.43,62.06,189.22S388.72,544.68,282.82,491,149.14,352.53,220.76,301.74Z"/><path class="cls-13" d="M224.47,258.49c103.47-24.23,271.53,19,375.37,96.63s104.15,160.16.68,184.39-271.53-19-375.37-96.63S121,282.73,224.47,258.49Z"/><path class="cls-14" d="M245.33,221.47c130.73,8.26,311.56,94.45,403.88,192.5S710.4,584.8,579.67,576.53,268.11,482.09,175.79,384,114.6,213.2,245.33,221.47Z"/><path class="cls-15" d="M284,194.83C434.3,239.51,613.73,367.15,684.72,479.91S691.4,647.85,541,603.17,211.27,430.85,140.28,318.09,133.6,150.15,284,194.83Z"/><path class="cls-16" d="M339.46,182.43c159.48,82.37,321.47,246.1,361.81,365.71S645,697.94,485.54,615.57,164.08,369.47,123.73,249.86,180,100.06,339.46,182.43Z"/><path class="cls-17" d="M409.36,187.38C565.19,305.55,692.92,496.08,694.66,613s-123.18,115.83-279-2.34S132.08,301.92,130.34,185,253.53,69.22,409.36,187.38Z"/><path class="cls-18" d="M489.54,211.75c137.89,148.64,215.17,353,172.62,456.39s-188.82,66.75-326.71-81.89-215.17-353-172.62-456.39S351.66,63.11,489.54,211.75Z"/><path class="cls-19" d="M574.4,256.15c105.19,170.35,118,372.4,28.57,451.3S355.79,712.2,250.6,541.85s-118-372.4-28.57-451.3S469.21,85.8,574.4,256.15Z"/><ellipse class="cls-20" cx="412.5" cy="399" rx="257.18" ry="342.9" transform="translate(-103.11 147) rotate(-18)"/><circle class="cls-21" cx="412.5" cy="399" r="317.5"/></svg>