<svg id="Layer_1" data-name="Layer 1" xmlns="http://www.w3.org/2000/svg" viewBox="0 0 825 825"><defs><style>.cls-1,.cls-2,.cls-3{fill:none;stroke:#000;stroke-linecap:round;stroke-miterlimit:10;}.cls-1{stroke-width:6.81px;stroke-dasharray:1.36 23.14;}.cls-2{stroke-width:3.94px;stroke-dasharray:0.79 13.4;}.cls-3{stroke-width:1.87px;stroke-dasharray:0.37 6.37;}</style></defs><title>Ben-Portfolio</title><ellipse class="cls-1" cx="410.34" cy="443.58" rx="211.66" ry="336.17"/><ellipse class="cls-1" cx="399.98" cy="440.21" rx="336.17" ry="211.66" transform="translate(-142.29 684.58) rotate(-72)"/><ellipse class="cls-1" cx="391.17" cy="433.81" rx="336.17" ry="211.66" transform="translate(-189.71 495.29) rotate(-54)"/><ellipse class="cls-1" cx="384.77" cy="425" rx="336.17" ry="211.66" transform="translate(-176.33 307.33) rotate(-36)"/><ellipse class="cls-1" cx="381.41" cy="414.65" rx="336.17" ry="211.66" transform="translate(-109.47 138.16) rotate(-18)"/><ellipse class="cls-1" cx="381.41" cy="403.76" rx="336.17" ry="211.66"/><ellipse class="cls-1" cx="384.77" cy="393.4" rx="211.66" ry="336.17" transform="translate(-108.28 637.78) rotate(-72)"/><ellipse class="cls-1" cx="391.17" cy="384.6" rx="211.66" ry="336.17" transform="translate(-149.9 475) rotate(-54)"/><ellipse class="cls-1" cx="399.98" cy="378.2" rx="211.66" ry="336.17" transform="translate(-145.91 307.33) rotate(-36)"/><ellipse class="cls-1" cx="410.34" cy="374.83" rx="211.66" ry="336.17" transform="translate(-95.75 145.15) rotate(-18)"/><ellipse class="cls-1" cx="421.22" cy="374.83" rx="211.66" ry="336.17"/><ellipse class="cls-1" cx="431.58" cy="378.2" rx="336.17" ry="211.66" transform="translate(-61.47 671.78) rotate(-72)"/><ellipse class="cls-1" cx="440.39" cy="384.6" rx="336.17" ry="211.66" transform="translate(-129.61 514.82) rotate(-54)"/><ellipse class="cls-1" cx="446.79" cy="393.4" rx="336.17" ry="211.66" transform="translate(-145.91 337.75) rotate(-36)"/><ellipse class="cls-1" cx="450.15" cy="403.76" rx="336.17" ry="211.66" transform="translate(-102.74 158.87) rotate(-18)"/><ellipse class="cls-1" cx="450.15" cy="414.65" rx="336.17" ry="211.66"/><ellipse class="cls-1" cx="446.79" cy="425" rx="211.66" ry="336.17" transform="matrix(0.31, -0.95, 0.95, 0.31, -95.48, 718.59)"/><ellipse class="cls-1" cx="440.39" cy="433.81" rx="211.66" ry="336.17" transform="translate(-169.43 535.11) rotate(-54)"/><ellipse class="cls-1" cx="431.58" cy="440.21" rx="211.66" ry="336.17" transform="translate(-176.33 337.75) rotate(-36)"/><ellipse class="cls-1" cx="421.22" cy="443.58" rx="211.66" ry="336.17" transform="translate(-116.46 151.88) rotate(-18)"/><ellipse class="cls-1" cx="410.34" cy="443.58" rx="211.66" ry="336.17"/><ellipse class="cls-2" cx="409.86" cy="440.85" rx="122.54" ry="194.63"/><ellipse class="cls-2" cx="403.86" cy="438.91" rx="194.63" ry="122.54" transform="matrix(0.31, -0.95, 0.95, 0.31, -138.36, 687.37)"/><ellipse class="cls-2" cx="398.76" cy="435.2" rx="194.63" ry="122.54" transform="translate(-187.71 502) rotate(-54)"/><ellipse class="cls-2" cx="395.06" cy="430.1" rx="194.63" ry="122.54" transform="translate(-177.36 314.35) rotate(-36)"/><ellipse class="cls-2" cx="393.11" cy="424.11" rx="194.63" ry="122.54" transform="translate(-111.82 142.23) rotate(-18)"/><ellipse class="cls-2" cx="393.11" cy="417.8" rx="194.63" ry="122.54"/><ellipse class="cls-2" cx="395.06" cy="411.81" rx="122.54" ry="194.63" transform="translate(-118.68 660.27) rotate(-72)"/><ellipse class="cls-2" cx="398.76" cy="406.71" rx="122.54" ry="194.63" transform="translate(-164.66 490.26) rotate(-54)"/><ellipse class="cls-2" cx="403.86" cy="403" rx="122.54" ry="194.63" transform="translate(-159.75 314.35) rotate(-36)"/><ellipse class="cls-2" cx="409.86" cy="401.05" rx="122.54" ry="194.63" transform="translate(-103.87 146.28) rotate(-18)"/><ellipse class="cls-2" cx="416.16" cy="401.05" rx="122.54" ry="194.63"/><ellipse class="cls-2" cx="422.15" cy="403" rx="194.63" ry="122.54" transform="translate(-91.58 679.96) rotate(-72)"/><ellipse class="cls-2" cx="427.25" cy="406.71" rx="194.63" ry="122.54" transform="translate(-152.91 513.31) rotate(-54)"/><ellipse class="cls-2" cx="430.96" cy="411.81" rx="194.63" ry="122.54" transform="translate(-159.75 331.96) rotate(-36)"/><ellipse class="cls-2" cx="432.91" cy="417.8" rx="194.63" ry="122.54" transform="matrix(0.95, -0.31, 0.31, 0.95, -107.92, 154.22)"/><ellipse class="cls-2" cx="432.91" cy="424.11" rx="194.63" ry="122.54"/><ellipse class="cls-2" cx="430.96" cy="430.1" rx="122.54" ry="194.63" transform="translate(-111.27 707.06) rotate(-72)"/><ellipse class="cls-2" cx="427.25" cy="435.2" rx="122.54" ry="194.63" transform="translate(-175.96 525.05) rotate(-54)"/><ellipse class="cls-2" cx="422.15" cy="438.91" rx="122.54" ry="194.63" transform="translate(-177.36 331.96) rotate(-36)"/><ellipse class="cls-2" cx="416.16" cy="440.85" rx="122.54" ry="194.63" transform="translate(-115.86 150.18) rotate(-18)"/><ellipse class="cls-2" cx="409.86" cy="440.85" rx="122.54" ry="194.63"/><ellipse class="cls-3" cx="411.19" cy="427.24" rx="58.27" ry="92.55"/><ellipse class="cls-3" cx="408.34" cy="426.32" rx="92.55" ry="58.27" transform="translate(-123.3 682.93) rotate(-72)"/><ellipse class="cls-3" cx="405.91" cy="424.56" rx="92.55" ry="58.27" transform="translate(-176.15 503.4) rotate(-54)"/><ellipse class="cls-3" cx="404.15" cy="422.13" rx="92.55" ry="58.27" transform="translate(-170.94 318.17) rotate(-36)"/><ellipse class="cls-3" cx="403.22" cy="419.28" rx="92.55" ry="58.27" transform="translate(-109.83 145.12) rotate(-18)"/><ellipse class="cls-3" cx="403.22" cy="416.28" rx="92.55" ry="58.27"/><ellipse class="cls-3" cx="404.15" cy="413.43" rx="58.27" ry="92.55" transform="translate(-113.94 670.04) rotate(-72)"/><ellipse class="cls-3" cx="405.91" cy="411.01" rx="58.27" ry="92.55" transform="translate(-165.19 497.81) rotate(-54)"/><ellipse class="cls-3" cx="408.34" cy="409.25" rx="58.27" ry="92.55" transform="translate(-162.56 318.17) rotate(-36)"/><ellipse class="cls-3" cx="411.19" cy="408.32" rx="58.27" ry="92.55" transform="translate(-106.05 147.05) rotate(-18)"/><ellipse class="cls-3" cx="414.18" cy="408.32" rx="58.27" ry="92.55"/><ellipse class="cls-3" cx="417.03" cy="409.25" rx="92.55" ry="58.27" transform="translate(-101.05 679.41) rotate(-72)"/><ellipse class="cls-3" cx="419.46" cy="411.01" rx="92.55" ry="58.27" transform="translate(-159.6 508.77) rotate(-54)"/><ellipse class="cls-3" cx="421.22" cy="413.43" rx="92.55" ry="58.27" transform="translate(-162.56 326.55) rotate(-36)"/><ellipse class="cls-3" cx="422.15" cy="416.28" rx="92.55" ry="58.27" transform="translate(-107.98 150.83) rotate(-18)"/><ellipse class="cls-3" cx="422.15" cy="419.28" rx="92.55" ry="58.27"/><ellipse class="cls-3" cx="421.22" cy="422.13" rx="58.27" ry="92.55" transform="translate(-110.41 692.29) rotate(-72)"/><ellipse class="cls-3" cx="419.46" cy="424.56" rx="58.27" ry="92.55" transform="translate(-170.57 514.36) rotate(-54)"/><ellipse class="cls-3" cx="417.03" cy="426.32" rx="58.27" ry="92.55" transform="translate(-170.94 326.55) rotate(-36)"/><ellipse class="cls-3" cx="414.18" cy="427.24" rx="58.27" ry="92.55" transform="translate(-111.75 148.9) rotate(-18)"/><ellipse class="cls-3" cx="411.19" cy="427.24" rx="58.27" ry="92.55"/></svg>