<svg id="Layer_1" data-name="Layer 1" xmlns="http://www.w3.org/2000/svg" viewBox="0 0 825 825"><defs><style>.cls-1,.cls-10,.cls-11,.cls-12,.cls-13,.cls-14,.cls-15,.cls-16,.cls-17,.cls-18,.cls-19,.cls-2,.cls-20,.cls-21,.cls-22,.cls-23,.cls-24,.cls-25,.cls-26,.cls-27,.cls-28,.cls-29,.cls-3,.cls-30,.cls-31,.cls-32,.cls-33,.cls-34,.cls-35,.cls-36,.cls-37,.cls-4,.cls-5,.cls-6,.cls-7,.cls-8,.cls-9{fill:none;stroke:#000;stroke-linecap:round;stroke-miterlimit:10;}.cls-1{stroke-width:9.12px;stroke-dasharray:0 31.92;}.cls-2{stroke-width:8.9px;stroke-dasharray:0 31.14;}.cls-3{stroke-width:8.68px;stroke-dasharray:0 30.38;}.cls-4{stroke-width:8.47px;stroke-dasharray:0 29.65;}.cls-5{stroke-width:8.26px;stroke-dasharray:0 28.93;}.cls-6{stroke-width:8.06px;stroke-dasharray:0 28.22;}.cls-7{stroke-width:7.87px;stroke-dasharray:0 27.54;}.cls-8{stroke-width:7.68px;stroke-dasharray:0 26.87;}.cls-9{stroke-width:7.49px;stroke-dasharray:0 26.22;}.cls-10{stroke-width:7.31px;stroke-dasharray:0 25.58;}.cls-11{stroke-width:7.13px;stroke-dasharray:0 24.96;}.cls-12{stroke-width:6.96px;stroke-dasharray:0 24.35;}.cls-13{stroke-width:6.79px;stroke-dasharray:0 23.76;}.cls-14{stroke-width:6.62px;stroke-dasharray:0 23.18;}.cls-15{stroke-width:6.46px;stroke-dasharray:0 22.62;}.cls-16{stroke-width:6.31px;stroke-dasharray:0 22.07;}.cls-17{stroke-width:6.15px;stroke-dasharray:0 21.54;}.cls-18{stroke-width:6px;stroke-dasharray:0 21.01;}.cls-19{stroke-width:5.86px;stroke-dasharray:0 20.5;}.cls-20{stroke-width:5.72px;stroke-dasharray:0 20;}.cls-21{stroke-width:5.58px;stroke-dasharray:0 19.52;}.cls-22{stroke-width:5.44px;stroke-dasharray:0 19.04;}.cls-23{stroke-width:5.31px;stroke-dasharray:0 18.58;}.cls-24{stroke-width:5.18px;stroke-dasharray:0 18.13;}.cls-25{stroke-width:5.05px;stroke-dasharray:0 17.69;}.cls-26{stroke-width:4.93px;stroke-dasharray:0 17.26;}.cls-27{stroke-width:4.81px;stroke-dasharray:0 16.84;}.cls-28{stroke-width:4.7px;stroke-dasharray:0 16.43;}.cls-29{stroke-width:4.58px;stroke-dasharray:0 16.03;}.cls-30{stroke-width:4.47px;stroke-dasharray:0 15.64;}.cls-31{stroke-width:4.36px;stroke-dasharray:0 15.26;}.cls-32{stroke-width:4.26px;stroke-dasharray:0 14.89;}.cls-33{stroke-width:4.15px;stroke-dasharray:0 14.53;}.cls-34{stroke-width:4.05px;stroke-dasharray:0 14.18;}.cls-35{stroke-width:3.95px;stroke-dasharray:0 13.83;}.cls-36{stroke-width:3.86px;stroke-dasharray:0 13.5;}.cls-37{stroke-width:3.76px;stroke-dasharray:0 13.17;}</style></defs><title>Ben-Portfolio</title><path class="cls-1" d="M733.12,63.78c44.67,12.49,17.36,178.65-61,371.13S494,773.31,449.32,760.82s-17.36-178.65,61-371.13S688.44,51.3,733.12,63.78Z"/><path class="cls-2" d="M767.53,144.71C807,166,748.14,321.29,636,491.57S400.78,782.63,361.25,761.34s19.39-176.59,131.57-346.87S728,123.42,767.53,144.71Z"/><path class="cls-3" d="M783.71,230.16c32.92,28.75-53.54,167-193.09,308.84S311.24,772.47,278.32,743.72s53.54-167,193.09-308.84S750.79,201.41,783.71,230.16Z"/><path class="cls-4" d="M781.84,316.25C807.05,350.87,698.1,467,538.49,575.6s-309.43,168.6-334.64,134S287.59,558.84,447.2,450.22,756.63,281.63,781.84,316.25Z"/><path class="cls-5" d="M762.88,399.24C779.67,438,654,528,482.15,600.32S157.42,699.9,140.63,661.18,249.53,532.43,421.36,460.1,746.09,360.52,762.88,399.24Z"/><path class="cls-6" d="M728.45,475.71c8,41-128.16,102.27-304.23,136.95S98.89,642.25,90.84,601.3,219,499,395.07,464.35,720.4,434.75,728.45,475.71Z"/><path class="cls-7" d="M680.79,542.68c-.62,41.32-141,72.66-313.51,70S55.37,574.37,56,533.05s141-72.66,313.51-70S681.4,501.36,680.79,542.68Z"/><path class="cls-8" d="M622.56,597.73c-8.84,39.89-147.12,41.35-308.86,3.26S28,499.68,36.85,459.79,184,418.44,345.72,456.53,631.41,557.84,622.56,597.73Z"/><path class="cls-9" d="M556.8,639.05c-16.29,36.81-146.64,9.76-291.15-60.43S17.21,421.71,33.5,384.89s146.64-9.76,291.15,60.43S573.09,602.24,556.8,639.05Z"/><path class="cls-10" d="M486.69,665.54C464,697.84,346.82,644.8,224.94,547.09S22.64,344,45.32,311.67s139.87,20.74,261.75,118.45S509.37,633.24,486.69,665.54Z"/><path class="cls-11" d="M415.45,676.76c-27.79,26.61-127.41-48.87-222.5-168.6S43.29,269.8,71.08,243.19s127.41,48.87,222.5,168.6S443.24,650.15,415.45,676.76Z"/><path class="cls-12" d="M346.21,673C314.75,693,236.15,599.39,170.64,463.87S77.53,202.22,109,182.17,219,255.73,284.55,391.26,377.66,652.9,346.21,673Z"/><path class="cls-13" d="M281.84,655C248.25,668,193,561.12,158.52,416.39s-35.26-272.56-1.67-285.5,88.81,93.9,123.32,238.63S315.43,642.07,281.84,655Z"/><path class="cls-14" d="M224.89,624.4c-34.18,5.62-64.75-109.22-68.28-256.49s21.32-271.22,55.5-276.84,64.75,109.22,68.28,256.49S259.07,618.78,224.89,624.4Z"/><path class="cls-15" d="M177.45,583c-33.27-1.59-39.07-119.1-12.94-262.46S238.78,62.28,272,63.87,311.12,183,285,326.33,210.72,584.61,177.45,583Z"/><path class="cls-16" d="M141.1,533.18c-31-8.39-12.94-123.39,40.29-256.85S302.88,41.49,333.86,49.88s12.94,123.39-40.29,256.85S172.07,541.57,141.1,533.18Z"/><path class="cls-17" d="M116.87,477.43c-27.46-14.5,12.5-122.16,89.25-240.45S367.33,34.55,394.79,49.05s-12.5,122.16-89.25,240.45S144.33,491.94,116.87,477.43Z"/><path class="cls-18" d="M105.23,418.45c-22.92-19.7,36.18-115.73,132-214.5s192.1-162.86,215-143.16-36.18,115.73-132,214.5S128.16,438.15,105.23,418.45Z"/><path class="cls-19" d="M106.08,358.94c-17.62-23.8,57.16-104.64,167-180.56S486.35,60.2,504,84s-57.16,104.64-167,180.56S123.7,382.73,106.08,358.94Z"/><path class="cls-20" d="M118.77,301.47C107,274.8,193.45,211.9,312,161s224.17-70.56,236-43.88-74.68,89.57-193.2,140.48S130.59,328.15,118.77,301.47Z"/><path class="cls-21" d="M142.2,248.43c-5.78-28.27,88.15-71.37,209.79-96.28S576.94,130,582.72,158.24s-88.15,71.37-209.79,96.28S148,276.7,142.2,248.43Z"/><path class="cls-22" d="M174.83,201.89c.21-28.56,97.17-51,216.56-50.05s216,24.82,215.79,53.38-97.17,51-216.56,50.05S174.62,230.45,174.83,201.89Z"/><path class="cls-23" d="M214.83,163.53c5.91-27.62,101.58-29.36,213.69-3.9s198.2,68.5,192.29,96.12-101.58,29.36-213.69,3.9S208.92,191.15,214.83,163.53Z"/><path class="cls-24" d="M260.12,134.62c11.08-25.53,101.41-7.53,201.76,40.22S634.59,282,623.51,307.51,522.1,315,421.75,267.29,249,160.15,260.12,134.62Z"/><path class="cls-25" d="M308.5,115.94c15.53-22.44,96.89,13.59,181.72,80.48s141,139.32,125.5,161.76S518.83,344.59,434,277.7,293,138.38,308.5,115.94Z"/><path class="cls-26" d="M357.73,107.81c19.09-18.54,88.41,33.1,154.82,115.35s104.78,164,85.69,182.49-88.41-33.1-154.82-115.35S338.64,126.35,357.73,107.81Z"/><path class="cls-27" d="M405.66,110.07c21.66-14,76.53,50.26,122.56,143.58S594,434,572.33,448,495.8,397.77,449.77,304.44,384,124.09,405.66,110.07Z"/><path class="cls-28" d="M450.29,122.12c23.18-9.13,61.93,64.43,86.56,164.28s25.81,188.2,2.63,197.33-61.93-64.43-86.56-164.28S427.11,131.25,450.29,122.12Z"/><path class="cls-29" d="M489.85,143c23.62-4.07,45.37,75.14,48.57,176.92s-13.35,187.58-37,191.65-45.37-75.14-48.57-176.92S466.23,147,489.85,143Z"/><path class="cls-30" d="M522.89,171.33c23,.92,27.65,82.11,10.31,181.34s-50.06,178.92-73.09,178-27.65-82.11-10.31-181.34S499.86,170.4,522.89,171.33Z"/><path class="cls-31" d="M548.3,205.58c21.48,5.64,9.59,85.22-26.55,177.75s-82.85,163-104.33,157.33S407.83,455.45,444,362.92,526.82,199.95,548.3,205.58Z"/><path class="cls-32" d="M565.35,244c19.07,9.88-8,84.5-60.51,166.67s-110.5,140.78-129.57,130.9,8-84.5,60.51-166.67S546.28,234.11,565.35,244Z"/><path class="cls-33" d="M573.71,284.69c16,13.49-24.43,80.19-90.23,149s-132.07,113.59-148,100.1,24.43-80.19,90.23-149S557.74,271.2,573.71,284.69Z"/><path class="cls-34" d="M573.43,325.83c12.32,16.35-39,72.63-114.64,125.69S311.86,534.34,299.54,518s39-72.63,114.64-125.69S561.12,309.48,573.43,325.83Z"/><path class="cls-35" d="M564.95,365.62c8.31,18.37-51.21,62.31-133,98.13s-154.75,50-163.06,31.59,51.21-62.31,133-98.13S556.63,347.25,564.95,365.62Z"/><ellipse class="cls-36" cx="396.84" cy="434.75" rx="155.57" ry="36.11" transform="translate(-81.72 92.01) rotate(-12)"/><ellipse class="cls-37" cx="377.09" cy="434.75" rx="149.59" ry="35.75"/></svg>