<svg id="Layer_1" data-name="Layer 1" xmlns="http://www.w3.org/2000/svg" viewBox="0 0 685.88 750.07"><defs><style>.cls-1,.cls-79{fill:#034f50;}.cls-1,.cls-41,.cls-75,.cls-79{opacity:0.8;}.cls-1,.cls-3,.cls-41,.cls-75,.cls-79{isolation:isolate;}.cls-2,.cls-71{fill:none;}.cls-2{stroke:#888;}.cls-3{font-size:12px;font-family:BasisGrotesquePro-Light, Basis Grotesque Pro;font-weight:300;}.cls-4{letter-spacing:-0.01em;}.cls-5{letter-spacing:-0.01em;}.cls-6{letter-spacing:0.02em;}.cls-7{letter-spacing:-0.02em;}.cls-8{letter-spacing:0em;}.cls-9{letter-spacing:-0.03em;}.cls-10{letter-spacing:-0.01em;}.cls-11{letter-spacing:-0.01em;}.cls-12{letter-spacing:-0.02em;}.cls-13{letter-spacing:-0.02em;}.cls-14{letter-spacing:-0.02em;}.cls-15{letter-spacing:-0.03em;}.cls-16{letter-spacing:-0.01em;}.cls-17{letter-spacing:-0.01em;}.cls-18{letter-spacing:-0.02em;}.cls-19{letter-spacing:-0.01em;}.cls-20{letter-spacing:-0.01em;}.cls-21{letter-spacing:0em;}.cls-22{letter-spacing:-0.01em;}.cls-23{letter-spacing:-0.03em;}.cls-24{letter-spacing:-0.03em;}.cls-25{letter-spacing:-0.01em;}.cls-26{letter-spacing:-0.02em;}.cls-27{letter-spacing:-0.04em;}.cls-28{letter-spacing:0em;}.cls-29{letter-spacing:0em;}.cls-30{letter-spacing:-0.01em;}.cls-31{letter-spacing:-0.01em;}.cls-32{letter-spacing:-0.02em;}.cls-33{letter-spacing:-0.02em;}.cls-34{letter-spacing:-0.01em;}.cls-35{letter-spacing:-0.01em;}.cls-36{letter-spacing:-0.01em;}.cls-37{letter-spacing:-0.02em;}.cls-38{letter-spacing:0em;}.cls-39{letter-spacing:-0.03em;}.cls-40{letter-spacing:0em;}.cls-41,.cls-75{fill:#92d1c8;}.cls-42{font-size:24px;font-family:BasisGrotesquePro-Bold, Basis Grotesque Pro;font-weight:700;}.cls-43{letter-spacing:-0.01em;}.cls-44{letter-spacing:0em;}.cls-45{letter-spacing:-0.01em;}.cls-46{letter-spacing:-0.01em;}.cls-47{letter-spacing:-0.01em;}.cls-48{letter-spacing:0em;}.cls-49{letter-spacing:-0.02em;}.cls-50{letter-spacing:0em;}.cls-51{letter-spacing:-0.02em;}.cls-52{font-size:18px;}.cls-52,.cls-72,.cls-75,.cls-79{font-family:BasisGrotesquePro, Basis Grotesque Pro;}.cls-53{letter-spacing:-0.02em;}.cls-54{letter-spacing:-0.02em;}.cls-55{letter-spacing:-0.02em;}.cls-56{letter-spacing:-0.02em;}.cls-57{letter-spacing:-0.01em;}.cls-58{letter-spacing:-0.01em;}.cls-59{letter-spacing:-0.01em;}.cls-60{letter-spacing:-0.02em;}.cls-61{letter-spacing:-0.02em;}.cls-62{letter-spacing:-0.01em;}.cls-63{letter-spacing:0.01em;}.cls-64{letter-spacing:-0.01em;}.cls-65{letter-spacing:-0.01em;}.cls-66{letter-spacing:-0.02em;}.cls-67{letter-spacing:-0.03em;}.cls-68{letter-spacing:-0.01em;}.cls-69{letter-spacing:0em;}.cls-70{letter-spacing:-0.02em;}.cls-71{stroke:#ddd;stroke-miterlimit:10;opacity:0.49;}.cls-72,.cls-75,.cls-79{font-size:14px;}.cls-72{fill:#b5b5b5;}.cls-73{letter-spacing:-0.01em;}.cls-74{letter-spacing:-0.01em;}.cls-76{letter-spacing:-0.02em;}.cls-77{letter-spacing:0em;}.cls-78{letter-spacing:-0.02em;}.cls-80{letter-spacing:-0.01em;}.cls-81{letter-spacing:-0.01em;}.cls-82{letter-spacing:0.03em;}.cls-83{letter-spacing:-0.02em;}.cls-84{letter-spacing:0em;}</style></defs><title>half-bubbles</title><path class="cls-1" d="M270.81,575.42a32.29,32.29,0,0,1,0,64.56"/><path class="cls-1" d="M492.33,587.46h.09a20.24,20.24,0,0,1,20.24,20.23h0a20.24,20.24,0,0,1-20.24,20.24h-.09"/><path class="cls-1" d="M603.53,638.13A30.42,30.42,0,0,0,634,607.7h0a30.43,30.43,0,0,0-30.43-30.42"/><path class="cls-1" d="M159.46,600.06a7.65,7.65,0,0,1,0,15.28"/><path class="cls-1" d="M325.38,597.4h.37a10.31,10.31,0,1,1,0,20.62h-.37"/><path class="cls-1" d="M215.05,586.38a21.32,21.32,0,0,1,0,42.64"/><path class="cls-1" d="M437.25,584.3a23.39,23.39,0,0,1,23,23.39h0a23.39,23.39,0,0,1-23,23.4"/><path class="cls-1" d="M603.53,336.5a21.2,21.2,0,1,1,0,42.4"/><path class="cls-1" d="M159.46,353.75a4,4,0,0,1,0,7.9"/><path class="cls-1" d="M325.38,348.77h.37a8.94,8.94,0,1,1,0,17.88h-.37"/><path class="cls-1" d="M215.05,343a14.68,14.68,0,0,1,0,29.34"/><path class="cls-1" d="M437.25,341.31a16.39,16.39,0,0,1,0,32.78"/><path class="cls-1" d="M548,349.21a8.49,8.49,0,0,1,0,17"/><path class="cls-1" d="M603.53,158.56a11.64,11.64,0,1,1,0,23.28"/><path class="cls-1" d="M159.46,164.56a5.65,5.65,0,0,1,0,11.28"/><path class="cls-1" d="M548,414.54a5.66,5.66,0,1,1,0,11.32"/><path class="cls-1" d="M603.53,475.05a7.65,7.65,0,1,1,0,15.3"/><path class="cls-1" d="M325.38,537.56h.37a7.65,7.65,0,0,1,0,15.3h-.37"/><path class="cls-1" d="M215.05,526.48a18.72,18.72,0,0,1,0,37.44"/><path class="cls-1" d="M437.25,525.36a19.84,19.84,0,0,1,0,39.68"/><path class="cls-1" d="M215.05,226.4a6.31,6.31,0,0,1,0,12.6"/><path class="cls-1" d="M437.25,279.91a15.29,15.29,0,0,1,0,30.58"/><line class="cls-2" x1="159.81" y1="639.45" x2="159.81" y2="644.45"/><line class="cls-2" x1="214.81" y1="639.45" x2="214.81" y2="644.45"/><line class="cls-2" x1="270.81" y1="639.45" x2="270.81" y2="644.45"/><line class="cls-2" x1="325.81" y1="639.45" x2="325.81" y2="644.45"/><line class="cls-2" x1="381.81" y1="639.45" x2="381.81" y2="644.45"/><line class="cls-2" x1="437.81" y1="639.45" x2="437.81" y2="644.45"/><line class="cls-2" x1="492.81" y1="639.45" x2="492.81" y2="644.45"/><line class="cls-2" x1="548.81" y1="639.45" x2="548.81" y2="644.45"/><line class="cls-2" x1="603.81" y1="639.45" x2="603.81" y2="644.45"/><text class="cls-3" transform="translate(153.93 656.11) rotate(45)">Anx<tspan class="cls-4" x="19.39" y="0">i</tspan><tspan class="cls-5" x="21.83" y="0">e</tspan><tspan class="cls-6" x="28.48" y="0">t</tspan><tspan x="32.77" y="0">y</tspan></text><text class="cls-3" transform="translate(209.49 656.11) rotate(45)"><tspan class="cls-7">C</tspan><tspan class="cls-8" x="8.53" y="0">o</tspan><tspan class="cls-9" x="15.64" y="0">n</tspan><tspan class="cls-10" x="22.02" y="0">s</tspan><tspan x="27.64" y="0">ti</tspan><tspan class="cls-11" x="34.16" y="0">p</tspan><tspan class="cls-12" x="41.22" y="0">a</tspan><tspan x="47.28" y="0">t</tspan><tspan class="cls-4" x="51.29" y="0">i</tspan><tspan x="53.72" y="0">on</tspan></text><text class="cls-3" transform="translate(265.04 656.11) rotate(45)">D<tspan class="cls-13" x="8.05" y="0">e</tspan><tspan class="cls-14" x="14.65" y="0">v</tspan><tspan x="20.12" y="0">elop</tspan><tspan class="cls-4" x="43.67" y="0">m</tspan><tspan x="53.22" y="0">e</tspan><tspan class="cls-15" x="60.01" y="0">n</tspan><tspan class="cls-5" x="66.36" y="0">t</tspan><tspan class="cls-16" x="70.22" y="0">a</tspan><tspan x="76.38" y="0">l de</tspan><tspan class="cls-17" x="96.12" y="0">l</tspan><tspan class="cls-18" x="98.53" y="0">a</tspan><tspan x="104.66" y="0">y</tspan></text><text class="cls-3" transform="translate(320.6 656.11) rotate(45)">D<tspan class="cls-19" x="8.05" y="0">i</tspan><tspan class="cls-20" x="10.4" y="0">s</tspan><tspan x="16" y="0">r</tspan><tspan class="cls-21" x="20" y="0">u</tspan><tspan class="cls-14" x="26.63" y="0">p</tspan><tspan x="33.54" y="0">ti</tspan><tspan class="cls-14" x="40.07" y="0">v</tspan><tspan x="45.54" y="0">e be</tspan><tspan class="cls-22" x="69.55" y="0">h</tspan><tspan class="cls-23" x="76.19" y="0">a</tspan><tspan x="82.21" y="0">v</tspan><tspan class="cls-4" x="87.9" y="0">i</tspan><tspan x="90.34" y="0">or</tspan></text><text class="cls-3" transform="translate(376.15 656.11) rotate(45)"><tspan class="cls-24">E</tspan><tspan class="cls-25" x="6.49" y="0">c</tspan><tspan class="cls-26" x="13.03" y="0">z</tspan><tspan x="18.54" y="0">e</tspan><tspan class="cls-22" x="25.33" y="0">m</tspan><tspan x="34.84" y="0">a</tspan></text><text class="cls-3" transform="translate(431.71 656.11) rotate(45)"><tspan class="cls-27">F</tspan><tspan class="cls-28" x="6.42" y="0">ee</tspan><tspan x="19.93" y="0">di</tspan><tspan class="cls-5" x="29.58" y="0">n</tspan><tspan class="cls-29" x="36.13" y="0">g di</tspan><tspan class="cls-4" x="55.99" y="0">ffi</tspan><tspan class="cls-30" x="65.34" y="0">c</tspan><tspan x="71.87" y="0">ult</tspan><tspan class="cls-4" x="85.07" y="0">i</tspan><tspan class="cls-31" x="87.5" y="0">e</tspan><tspan class="cls-8" x="94.14" y="0">s</tspan></text><text class="cls-3" transform="translate(487.27 656.11) rotate(45)">H<tspan class="cls-21" x="8.11" y="0">y</tspan><tspan x="13.79" y="0">p</tspan><tspan class="cls-32" x="20.92" y="0">o</tspan><tspan class="cls-33" x="27.8" y="0">t</tspan><tspan x="31.57" y="0">on</tspan><tspan class="cls-34" x="45.37" y="0">i</tspan><tspan x="47.77" y="0">a</tspan></text><text class="cls-3" transform="translate(542.82 656.11) rotate(45)">P<tspan class="cls-4" x="7.92" y="0">i</tspan><tspan class="cls-35" x="10.36" y="0">c</tspan><tspan x="16.86" y="0">a</tspan></text><text class="cls-3" transform="translate(598.38 656.11) rotate(45)">Sl<tspan class="cls-28" x="10.2" y="0">e</tspan><tspan class="cls-4" x="16.96" y="0">e</tspan><tspan x="23.66" y="0">p</tspan></text><line class="cls-2" x1="131.81" y1="639.45" x2="631.81" y2="639.45"/><line class="cls-2" x1="131.81" y1="170.45" x2="126.81" y2="170.45"/><line class="cls-2" x1="131.81" y1="233.45" x2="126.81" y2="233.45"/><line class="cls-2" x1="131.81" y1="295.45" x2="126.81" y2="295.45"/><line class="cls-2" x1="131.81" y1="358.45" x2="126.81" y2="358.45"/><line class="cls-2" x1="131.81" y1="420.45" x2="126.81" y2="420.45"/><line class="cls-2" x1="131.81" y1="483.45" x2="126.81" y2="483.45"/><line class="cls-2" x1="131.81" y1="545.45" x2="126.81" y2="545.45"/><line class="cls-2" x1="131.81" y1="608.45" x2="126.81" y2="608.45"/><text class="cls-3" transform="translate(74.59 173.7)"><tspan class="cls-34">A</tspan><tspan class="cls-36" x="7.51" y="0">D</tspan><tspan class="cls-5" x="15.41" y="0">H</tspan><tspan x="23.38" y="0">D*</tspan></text><text class="cls-3" transform="translate(74.02 236.2)">Anx<tspan class="cls-4" x="19.39" y="0">i</tspan><tspan class="cls-5" x="21.83" y="0">e</tspan><tspan class="cls-6" x="28.48" y="0">t</tspan><tspan x="32.77" y="0">y</tspan></text><text class="cls-3" transform="translate(49 298.7)"><tspan class="cls-7">C</tspan><tspan class="cls-8" x="8.53" y="0">o</tspan><tspan class="cls-9" x="15.64" y="0">n</tspan><tspan class="cls-10" x="22.02" y="0">s</tspan><tspan x="27.64" y="0">ti</tspan><tspan class="cls-4" x="34.16" y="0">p</tspan><tspan class="cls-34" x="41.21" y="0">i</tspan><tspan class="cls-37" x="43.61" y="0">a</tspan><tspan class="cls-29" x="49.67" y="0">t</tspan><tspan class="cls-4" x="53.68" y="0">i</tspan><tspan class="cls-8" x="56.11" y="0">on</tspan></text><text class="cls-3" transform="translate(13.42 361.2)">D<tspan class="cls-13" x="8.05" y="0">e</tspan><tspan class="cls-14" x="14.65" y="0">v</tspan><tspan x="20.12" y="0">elop</tspan><tspan class="cls-4" x="43.67" y="0">m</tspan><tspan x="53.22" y="0">e</tspan><tspan class="cls-15" x="60.01" y="0">n</tspan><tspan class="cls-5" x="66.36" y="0">t</tspan><tspan class="cls-16" x="70.22" y="0">a</tspan><tspan x="76.38" y="0">l de</tspan><tspan class="cls-17" x="96.12" y="0">l</tspan><tspan class="cls-18" x="98.53" y="0">a</tspan><tspan x="104.66" y="0">y</tspan></text><text class="cls-3" transform="translate(61.78 423.7)">H<tspan class="cls-21" x="8.11" y="0">y</tspan><tspan x="13.79" y="0">p</tspan><tspan class="cls-32" x="20.92" y="0">o</tspan><tspan class="cls-33" x="27.8" y="0">t</tspan><tspan x="31.57" y="0">on</tspan><tspan class="cls-34" x="45.37" y="0">i</tspan><tspan x="47.77" y="0">a</tspan></text><text class="cls-3" transform="translate(30.1 486.2)">Seiz<tspan class="cls-38" x="22.68" y="0">u</tspan><tspan class="cls-39" x="29.29" y="0">r</tspan><tspan x="32.98" y="0">e </tspan><tspan class="cls-17" x="43.07" y="0">c</tspan><tspan x="49.56" y="0">o</tspan><tspan class="cls-4" x="56.66" y="0">n</tspan><tspan x="63.28" y="0">dit</tspan><tspan class="cls-4" x="76.93" y="0">i</tspan><tspan x="79.37" y="0">on</tspan></text><text class="cls-3" transform="translate(81.24 548.7)">Sl<tspan class="cls-28" x="10.2" y="0">e</tspan><tspan class="cls-4" x="16.96" y="0">e</tspan><tspan x="23.66" y="0">p</tspan></text><text class="cls-3" transform="translate(72.9 611.2)"><tspan class="cls-37">S</tspan><tspan x="7.4" y="0">p</tspan><tspan class="cls-40" x="14.53" y="0">ee</tspan><tspan class="cls-35" x="28.04" y="0">c</tspan><tspan x="34.55" y="0">h</tspan></text><line class="cls-2" x1="131.81" y1="139.45" x2="131.81" y2="639.45"/><path class="cls-41" d="M270.86,629.26a22.42,22.42,0,0,1,0-44.83"/><path class="cls-41" d="M492.86,624a15.15,15.15,0,0,1,0-30.29"/><path class="cls-41" d="M603.86,586.27a22.59,22.59,0,0,0-21.79,22.58h0a22.58,22.58,0,0,0,21.79,22.57"/><path class="cls-41" d="M160.07,615a7.3,7.3,0,0,1,0-14.59"/><path class="cls-41" d="M325.86,615.17a7.37,7.37,0,0,1-4.4-12.54,7.26,7.26,0,0,1,4.4-2.11"/><path class="cls-41" d="M214.86,622.43a15.59,15.59,0,0,1,0-31.17"/><path class="cls-41" d="M437.86,624.7h-.2a16.87,16.87,0,0,1,0-33.73h.2"/><path class="cls-41" d="M325.79,550.43a5.23,5.23,0,0,1,0-10.34"/><path class="cls-41" d="M215.26,557a11.77,11.77,0,0,1,0-23.54"/><path class="cls-41" d="M437.64,558.33h-.2a13.08,13.08,0,0,1,0-26.16h.21"/><path class="cls-41" d="M604.27,488.06a5.23,5.23,0,0,1,0-10.34"/><path class="cls-41" d="M603.53,373.09a15.56,15.56,0,0,1-14.77-15.54h0A15.57,15.57,0,0,1,603.53,342"/><path class="cls-41" d="M160.08,363a5.33,5.33,0,0,1,0-10.66"/><path class="cls-41" d="M325.38,364a6.26,6.26,0,0,1,0-12.42"/><path class="cls-41" d="M214.86,368.68a11,11,0,0,1,0-21.95"/><path class="cls-41" d="M437.42,370h-.2a12.21,12.21,0,0,1,0-24.42h.2"/><path class="cls-41" d="M548,363.57a5.75,5.75,0,0,1,0-11.5"/><path class="cls-41" d="M437.42,303.65h-.2a8.82,8.82,0,1,1,0-17.63h.21"/><path class="cls-41" d="M603.72,161.7a8.56,8.56,0,0,0-7.77,8.52,8.57,8.57,0,0,0,7.77,8.53"/><path class="cls-41" d="M159.46,173.13a2.94,2.94,0,0,1,0-5.86"/><path class="cls-41" d="M215.05,236.49a3.79,3.79,0,0,1,0-7.57"/><text class="cls-42" transform="translate(132.22 38.94)">So<tspan class="cls-43" x="30.29" y="0">m</tspan><tspan class="cls-44" x="50.57" y="0">e </tspan><tspan class="cls-45" x="70.94" y="0">c</tspan><tspan x="84.14" y="0">o</tspan><tspan class="cls-43" x="98.81" y="0">n</tspan><tspan x="112.9" y="0">ditio</tspan><tspan class="cls-37" x="163.46" y="0">n</tspan><tspan x="177.17" y="0">s </tspan><tspan class="cls-46" x="195.77" y="0">a</tspan><tspan class="cls-34" x="209.21" y="0">cc</tspan><tspan x="235.61" y="0">o</tspan><tspan class="cls-47" x="250.27" y="0">m</tspan><tspan class="cls-48" x="270.43" y="0">p</tspan><tspan class="cls-22" x="285.33" y="0">a</tspan><tspan class="cls-37" x="298.65" y="0">n</tspan><tspan x="312.36" y="0">y </tspan><tspan class="cls-22" x="332.06" y="0">a</tspan><tspan class="cls-28" x="345.38" y="0">u</tspan><tspan x="359.57" y="0">t</tspan><tspan class="cls-49" x="368.52" y="0">i</tspan><tspan class="cls-17" x="374.04" y="0">s</tspan><tspan x="385.82" y="0">m in </tspan><tspan class="cls-50" x="439.72" y="0">p</tspan><tspan x="454.63" y="0">ai</tspan><tspan class="cls-51" x="474.21" y="0">r</tspan><tspan x="482.9" y="0">s</tspan></text><text class="cls-52" transform="translate(132.22 66.28)"><tspan class="cls-53">P</tspan><tspan class="cls-54" x="11.75" y="0">r</tspan><tspan class="cls-55" x="17.59" y="0">ev</tspan><tspan class="cls-56" x="36.2" y="0">a</tspan><tspan x="45.7" y="0">le</tspan><tspan class="cls-57" x="60.14" y="0">n</tspan><tspan class="cls-58" x="70.22" y="0">c</tspan><tspan x="80.08" y="0">e </tspan><tspan class="cls-22" x="95.35" y="0">o</tspan><tspan x="105.98" y="0">f </tspan><tspan class="cls-59" x="116.6" y="0">c</tspan><tspan x="126.47" y="0">o</tspan><tspan class="cls-57" x="137.3" y="0">n</tspan><tspan x="147.38" y="0">dit</tspan><tspan class="cls-34" x="168.53" y="0">i</tspan><tspan x="172.47" y="0">o</tspan><tspan class="cls-60" x="183.31" y="0">n</tspan><tspan x="193.16" y="0">s </tspan><tspan class="cls-61" x="206.93" y="0">a</tspan><tspan x="216.41" y="0">s a % </tspan><tspan class="cls-62" x="265.78" y="0">o</tspan><tspan x="276.42" y="0">f </tspan><tspan class="cls-11" x="287.04" y="0">p</tspan><tspan class="cls-16" x="297.86" y="0">a</tspan><tspan class="cls-63" x="307.36" y="0">r</tspan><tspan x="313.88" y="0">t</tspan><tspan class="cls-64" x="320" y="0">i</tspan><tspan x="323.94" y="0">ci</tspan><tspan class="cls-65" x="338.09" y="0">p</tspan><tspan class="cls-66" x="348.91" y="0">a</tspan><tspan class="cls-67" x="358.41" y="0">n</tspan><tspan class="cls-68" x="368.19" y="0">t</tspan><tspan x="374.16" y="0">s &lt;6 </tspan><tspan class="cls-69" x="413.1" y="0">y</tspan><tspan class="cls-70" x="421.86" y="0">r</tspan><tspan x="427.82" y="0">s old</tspan></text><circle class="cls-71" cx="220.68" cy="105.46" r="19.2"/><circle class="cls-71" cx="198.59" cy="105.46" r="10.64"/><circle class="cls-71" cx="185.9" cy="105.46" r="6.13"/><text class="cls-72" transform="translate(243.11 110.7)"><tspan class="cls-73">1</tspan><tspan x="5" y="0">8</tspan><tspan class="cls-74" x="13.1" y="0">.</tspan><tspan x="15.58" y="0">5%</tspan></text><text class="cls-72" transform="translate(152.9 110.7)">&lt;1%</text><path class="cls-1" d="M423.28,89.88a11.64,11.64,0,1,1,0,23.28"/><path class="cls-41" d="M423.47,93a8.57,8.57,0,0,0,0,17.06"/><text class="cls-75" transform="translate(346.67 105)"><tspan class="cls-76">e</tspan><tspan x="7.78" y="0">xp</tspan><tspan class="cls-77" x="22.36" y="0">e</tspan><tspan class="cls-34" x="30.32" y="0">c</tspan><tspan class="cls-78" x="37.98" y="0">t</tspan><tspan class="cls-77" x="42.52" y="0">e</tspan><tspan x="50.48" y="0">d</tspan></text><text class="cls-79" transform="translate(446.84 105)">o<tspan class="cls-80" x="8.43" y="0">b</tspan><tspan class="cls-81" x="16.73" y="0">s</tspan><tspan x="23.51" y="0">e</tspan><tspan class="cls-82" x="31.53" y="0">r</tspan><tspan class="cls-83" x="36.81" y="0">v</tspan><tspan class="cls-84" x="43.48" y="0">e</tspan><tspan x="51.45" y="0">d</tspan></text></svg>